<?xml version="1.0" standalone="no"?>
  <!DOCTYPE svg PUBLIC "-//W3C//DTD SVG 1.1//EN" "http://www.w3.org/Graphics/SVG/1.1/DTD/svg11.dtd" >
  <svg>
  <metadata>
  Created by font-carrier
  </metadata>
  <defs>
  <font id="LavanderiaC" horiz-adv-x="1673" vert-adv-y="1673" >
    <font-face
      
      font-family="LavanderiaC"
      
      font-weight="400"
      
      font-stretch="normal"
      
      units-per-em="1000"
      
      ascent="1200"
      
      descent="-600"
      
    />
      <missing-glyph />

      

      
      <glyph glyph-name="unia6" unicode="&#xa6;" d="M114 346Q107 305 99.50 264Q92 223 84 181Q76 139 67 94Q58 49 49 0L17 0Q33 90 48.50 175.50Q64 261 80 346L114 346M86 386Q102 475 118.50 556.50Q135 638 149 721L181 721Q166 635 152 555Q138 475 121 386L86 386Z"  horiz-adv-x="166" vert-adv-y="1000"  />

      
      <glyph glyph-name="uni2212" unicode="&#x2212;" d="M200 272L194 240L15 240L21 272L200 272Z"  horiz-adv-x="227" vert-adv-y="1000"  />

      
      <glyph glyph-name="uni21" unicode="&#x21;" d="M263 712Q238 644 214.50 575Q191 506 168.50 433Q146 360 125 281Q104 202 83 112L50 117Q83 281 123.50 435.50Q164 590 208 727L263 712M43-7Q28-7 20.50 3Q13 13 13 27Q13 44 23.50 58.50Q34 73 54 73Q70 73 77 63.50Q84 54 84 40Q84 23 73.50 8Q63-7 43-7Z"  horiz-adv-x="159" vert-adv-y="1000"  />

      
      <glyph glyph-name="uni22" unicode="&#x22;" d="M57 587Q62 615 66.50 640.50Q71 666 73 686Q76 709 78 728Q89 726 99.50 724.50Q110 723 121 721Q114 702 108 680Q103 661 96.50 636Q90 611 84 582L57 587M125 587Q130 615 134.50 640.50Q139 666 141 686Q144 709 146 728Q157 726 167 724.50Q177 723 188 721Q182 702 176 680Q171 661 164.50 636Q158 611 152 582L125 587Z"  horiz-adv-x="182" vert-adv-y="1000"  />

      
      <glyph glyph-name="uni23" unicode="&#x23;" d="M269 479Q280 479 291 478.50Q302 478 313 478L289 344L382 344L377 312L284 312L268 229L364 229L359 197L262 197L238 73Q227 73 216 73Q205 73 194 74L217 197L153 197L129 73Q118 73 107 73Q96 73 85 74L109 197L15 197L20 229L115 229L130 312L33 312L38 344L136 344L160 479Q171 479 182 478.50Q193 478 204 478Q199 444 193 410.50Q187 377 181 344L245 344L269 479L269 479M224 229L239 312L175 312Q171 291 167.50 270.50Q164 250 159 229L224 229Z"  horiz-adv-x="386" vert-adv-y="1000"  />

      
      <glyph glyph-name="uni24" unicode="&#x24;" d="M232 321Q241 352 239.50 373.50Q238 395 229.50 408Q221 421 208 427Q195 433 182 433Q158 433 140.50 414.50Q123 396 123 366Q123 342 133 322Q143 302 158 284.50Q173 267 191 249.50Q209 232 224 213Q239 194 249 172Q259 150 259 123Q259 76 238 46Q217 16 186.50 3Q156-10 121.50-7Q87-4 59.50 13.50Q32 31 17 63Q2 95 11 140L66 131Q59 99 66.50 76Q74 53 88.50 40.50Q103 28 122 26Q141 24 158 32.50Q175 41 186.50 61Q198 81 198 112Q198 144 177.50 169Q157 194 132.50 219Q108 244 87.50 273Q67 302 67 343Q67 368 75 390Q83 412 98.50 428.50Q114 445 136 455Q158 465 186 465Q211 465 233.50 454Q256 443 270.50 422.50Q285 402 289.50 373.50Q294 345 285 310L232 321M90-90L205 538L229 539L116-90L90-90Z"  horiz-adv-x="317" vert-adv-y="1000"  />

      
      <glyph glyph-name="uni25" unicode="&#x25;" d="M336 215Q318 215 304 202.50Q290 190 279.50 171Q269 152 263.50 129Q258 106 258 85Q258 58 268 39Q278 20 300 20Q318 20 332 32Q346 44 356.50 63Q367 82 372.50 105Q378 128 378 149Q378 176 368 195.50Q358 215 336 215M338 240Q380 240 398.50 211.50Q417 183 417 145Q417 119 409 92.50Q401 66 385.50 44Q370 22 348 8.50Q326-5 298-5Q256-5 237 23.50Q218 52 218 90Q218 116 226 142.50Q234 169 249.50 191Q265 213 287.50 226.50Q310 240 338 240M137 464Q154 464 169.50 461Q185 458 200 458Q229 458 255 465Q281 472 303 482.50Q325 493 342 505Q359 517 370 527L398 511Q374 455 334.50 386Q295 317 248 246Q201 175 149.50 108.50Q98 42 50-7L21 14Q99 97 160.50 181.50Q222 266 264 335Q313 415 351 490Q333 477 311 466Q292 457 265 449.50Q238 442 205 442Q200 442 194 442.50Q188 443 182 444Q197 434 206 413.50Q215 393 215 367Q215 342 207.50 316Q200 290 185.50 269Q171 248 149 234.50Q127 221 98 221Q56 221 36 250.50Q16 280 16 320Q16 344 24.50 369.50Q33 395 48.50 416Q64 437 86.50 450.50Q109 464 137 464M134 439Q116 439 101 427Q86 415 76 397Q66 379 60.50 357Q55 335 55 315Q55 287 66 266.50Q77 246 100 246Q118 246 132 257.50Q146 269 156 287Q166 305 171.50 326.50Q177 348 177 369Q177 396 167 416.50Q157 437 134 439Z"  horiz-adv-x="439" vert-adv-y="1000"  />

      
      <glyph glyph-name="uni26" unicode="&#x26;" d="M310 358L486 358L481 329Q472 328 461 328L411 328Q409 241 391 169.50Q373 98 331 53Q366-1 404.50-33.50Q443-66 484-66Q508-66 525-55Q542-44 554-27L581-53Q561-75 539.50-84.50Q518-94 485-94Q434-94 386.50-61.50Q339-29 297 25Q277 12 253 4Q229-4 202-4Q113-4 70.50 43Q28 90 28 167Q28 227 55.50 293Q83 359 136 411Q132 436 129 460Q126 484 126 507Q126 553 132.50 593Q139 633 154 662.50Q169 692 193.50 709Q218 726 254 726Q281 726 300.50 716.50Q320 707 333 691.50Q346 676 352 656Q358 636 358 615Q358 583 345.50 553.50Q333 524 310 504Q302 512 293.50 518.50Q285 525 277 532Q295 551 304.50 575.50Q314 600 314 623Q314 654 298.50 673.50Q283 693 253 693Q213 693 195 655Q177 617 177 554Q177 504 187 443.50Q197 383 215 320Q233 257 258 195.50Q283 134 312 83Q338 123 347 185.50Q356 248 357 328Q344 328 331.50 328Q319 328 305 329L310 358M201 24Q249 24 279 48Q231 117 196 203.50Q161 290 143 378Q114 338 99 288Q84 238 84 190Q84 157 91 126.50Q98 96 112 73.50Q126 51 148.50 37.50Q171 24 201 24Z"  horiz-adv-x="466" vert-adv-y="1000"  />

      
      <glyph glyph-name="uni27" unicode="&#x27;" d="M60 587Q65 615 69.50 640.50Q74 666 76 686Q79 709 81 728Q92 726 102.50 724.50Q113 723 124 721Q117 702 111 680Q106 661 99.50 636Q93 611 87 582L60 587Z"  horiz-adv-x="115" vert-adv-y="1000"  />

      
      <glyph glyph-name="uni28" unicode="&#x28;" d="M203 779Q210 774 217 770.50Q224 767 232 762Q199 698 170 605.50Q141 513 119 410Q97 307 84 202Q71 97 71 7Q71-19 72-42Q73-65 76-87L46-93Q35-51 29.50-3Q24 45 24 97Q24 186 37.50 281Q51 376 75 467Q99 558 131.50 638.50Q164 719 203 779Z"  horiz-adv-x="174" vert-adv-y="1000"  />

      
      <glyph glyph-name="uni29" unicode="&#x29;" d="M-1-93Q-9-88-16-84.50Q-23-81-30-76Q-9-33 11.50 22.50Q32 78 49.50 141.50Q67 205 82 274.50Q97 344 107.50 413.50Q118 483 124 550Q130 617 130 677Q130 703 129 727Q128 751 125 773L155 779Q166 736 171.50 687.50Q177 639 177 588Q177 499 163 404Q149 309 125 218.50Q101 128 68.50 47.50Q36-33-1-93Z"  horiz-adv-x="194" vert-adv-y="1000"  />

      
      <glyph glyph-name="uni2a" unicode="&#x2a;" d="M134 720Q129 694 123.50 673.50Q118 653 115 642Q125 647 143 654Q161 661 189 672L197 640Q174 632 153.50 627Q133 622 121 620Q131 613 147 600.50Q163 588 185 570L163 548Q145 562 130 578Q115 594 107 604Q106 591 103.50 570.50Q101 550 96 524L65 531Q70 554 75.50 574.50Q81 595 85 607Q62 595 11 578L2 608Q22 615 43 620.50Q64 626 77 629Q67 635 52 646.50Q37 658 15 678L36 700Q55 683 69.50 668.50Q84 654 92 644Q92 655 94.50 675Q97 695 103 725L134 720Z"  horiz-adv-x="184" vert-adv-y="1000"  />

      
      <glyph glyph-name="uni2b" unicode="&#x2b;" d="M190 273L184 241L111 241Q108 220 104 199Q100 178 97 158Q89 159 81.50 159.50Q74 160 66 162L79 241L5 241L11 273L85 273Q90 294 93 315Q96 336 101 358Q109 356 116.50 355.50Q124 355 132 354L117 273L190 273Z"  horiz-adv-x="197" vert-adv-y="1000"  />

      
      <glyph glyph-name="uni2c" unicode="&#x2c;" d="M-15-119Q-20-114-26-109.50Q-32-105-37-100Q-14-64-5.50-26.50Q3 11 3 46L49 46Q49 1 32-42.50Q15-86-15-119Z"  horiz-adv-x="119" vert-adv-y="1000"  />

      
      <glyph glyph-name="uni2d" unicode="&#x2d;" d="M200 272L194 240L15 240L21 272L200 272Z"  horiz-adv-x="219" vert-adv-y="1000"  />

      
      <glyph glyph-name="uni2e" unicode="&#x2e;" d="M43-7Q28-7 20.50 3Q13 13 13 27Q13 44 23.50 58.50Q34 73 54 73Q70 73 77 63.50Q84 54 84 40Q84 23 73.50 8Q63-7 43-7Z"  horiz-adv-x="155" vert-adv-y="1000"  />

      
      <glyph glyph-name="uni2f" unicode="&#x2f;" d="M52-6Q43-4 34.50-1Q26 2 18 5Q55 120 84.50 231.50Q114 343 135.50 438Q157 533 171.50 607Q186 681 193 723L229 717Q221 675 207.50 601Q194 527 172.50 432Q151 337 121.50 224.50Q92 112 52-6Z"  horiz-adv-x="170" vert-adv-y="1000"  />

      
      <glyph glyph-name="uni30" unicode="&#x30;" d="M128 28Q152 28 172 54Q192 80 206.50 120.50Q221 161 229.50 211Q238 261 238 309Q238 366 225.50 397Q213 428 186 428Q160 428 139.50 401Q119 374 105 332Q91 290 83.50 240Q76 190 76 145Q76 28 128 28M125-7Q97-7 77.50 6Q58 19 45.50 41.50Q33 64 27 95Q21 126 21 161Q21 214 32.50 268Q44 322 65.50 365.50Q87 409 118.50 436Q150 463 190 463Q220 463 239.50 449.50Q259 436 271 413.50Q283 391 288 360Q293 329 293 295Q293 239 281 185Q269 131 247.50 88Q226 45 195 19Q164-7 125-7Z"  horiz-adv-x="314" vert-adv-y="1000"  />

      
      <glyph glyph-name="uni31" unicode="&#x31;" d="M-10 0L-5 31L61 31Q72 109 84.50 174.50Q97 240 107 289Q118 346 129 393Q118 379 106 363Q95 349 80 332Q65 315 47 298L29 330Q52 349 75 371Q98 393 115 413Q135 436 153 459L189 447Q188 439 181.50 406.50Q175 374 164.50 320Q154 266 141 193Q128 120 115 31L182 31L177 0L-10 0Z"  horiz-adv-x="208" vert-adv-y="1000"  />

      
      <glyph glyph-name="uni32" unicode="&#x32;" d="M157 429Q124 429 105.50 402.50Q87 376 87 342Q87 318 96 296L52 275Q39 298 39 330Q39 354 47 377.50Q55 401 70.50 420Q86 439 108.50 451Q131 463 161 463Q214 463 239.50 433.50Q265 404 265 356Q265 304 242.50 264.50Q220 225 187 190Q154 155 115.50 119Q77 83 45 37Q50 39 56.50 39.50Q63 40 70 40Q85 40 103.50 38Q122 36 139 36Q170 36 186.50 42.50Q203 49 213 59Q221 50 228.50 40.50Q236 31 244 22Q231 8 216 1Q201-6 179-6Q145-6 113.50 3.50Q82 13 57 13Q46 13 33.50 8.50Q21 4 17-7L-18 12Q-14 20-9 29.50Q-4 39 3 49Q37 100 74.50 139Q112 178 143.50 213.50Q175 249 195 284Q215 319 215 363Q215 394 199 411.50Q183 429 157 429Z"  horiz-adv-x="282" vert-adv-y="1000"  />

      
      <glyph glyph-name="uni33" unicode="&#x33;" d="M137 214Q146 212 156 211Q166 210 175 208Q201 228 216 265.50Q231 303 231 341Q231 378 215.50 404.50Q200 431 167 431Q151 431 138 423.50Q125 416 115.50 403.50Q106 391 101 375Q96 359 96 341Q96 315 106 295L63 278Q50 301 50 335Q50 358 57 381Q64 404 79 422Q94 440 116.50 451.50Q139 463 170 463Q199 463 220.50 453Q242 443 255.50 426Q269 409 275.50 387Q282 365 282 341Q282 298 263 256Q244 214 209 191Q235 172 248 139Q261 106 261 69Q261 36 251 3.50Q241-29 221.50-55Q202-81 173-97Q144-113 106-113Q79-113 59.50-103.50Q40-94 26.50-78.50Q13-63 6.50-43Q0-23 0-1Q0 30 13.50 60Q27 90 53 110L87 75Q67 60 56.50 36.50Q46 13 46-10Q46-36 61.50-57Q77-78 110-78Q134-78 152-64Q170-50 182.50-27.50Q195-5 201.50 23Q208 51 208 79Q208 108 199 134Q190 160 176 173Q158 167 139 167Q132 167 129 168L137 214Z"  horiz-adv-x="298" vert-adv-y="1000"  />

      
      <glyph glyph-name="uni34" unicode="&#x34;" d="M266 456Q264 443 247.50 363.50Q231 284 209 157Q231 158 246 163.50Q261 169 272 177L289 137Q265 119 229 118L218 118Q214 118 210.50 117.50Q207 117 203 117L189 31L260 31L255 0L73 0L78 31L140 31Q143 54 146.50 77Q150 100 154 123L95 131Q92 131 89 131.50Q86 132 83 132Q69 132 55 128.50Q41 125 33 114L-5 142Q43 206 63 283Q83 360 85 438L132 438Q131 370 116.50 298Q102 226 60 156Q68 158 78 159Q88 160 98 160Q113 160 128.50 158.50Q144 157 160 156Q170 213 179.50 264Q189 315 197 355Q205 395 210.50 421.50Q216 448 218 456L266 456Z"  horiz-adv-x="299" vert-adv-y="1000"  />

      
      <glyph glyph-name="uni35" unicode="&#x35;" d="M51 204Q53 207 57 213.50Q61 220 69 226Q75 248 86 306Q97 364 106 461Q148 452 190 452Q226 452 251 456.50Q276 461 284 465L290 413Q283 410 259.50 405Q236 400 201 400Q182 400 165 402Q148 404 135 406Q132 383 129 363Q126 343 122.50 323.50Q119 304 114.50 284Q110 264 104 241Q112 244 122 245.50Q132 247 141 247Q202 247 230 206Q258 165 258 102Q258 62 247 23Q236-16 215-46.50Q194-77 164-96Q134-115 95-115Q68-115 48-106Q28-97 15-82Q2-67-4.50-47.50Q-11-28-11-7Q-11 25 3 57Q17 89 44 110L77 73Q56 55 46 31.50Q36 8 36-14Q36-25 40-37Q44-49 52-58.50Q60-68 71-74Q82-80 96-80Q120-80 140.50-62.50Q161-45 175-17.50Q189 10 197 43.50Q205 77 205 109Q205 161 183 188.50Q161 216 129 216Q115 216 107.50 212.50Q100 209 94.50 204.50Q89 200 85.50 195Q82 190 78 186L51 204Z"  horiz-adv-x="298" vert-adv-y="1000"  />

      
      <glyph glyph-name="uni36" unicode="&#x36;" d="M305 510Q227 482 170.50 428Q114 374 86 293Q103 316 124.50 330.50Q146 345 173 345Q197 345 214.50 333.50Q232 322 244 302.50Q256 283 261.50 257.50Q267 232 267 204Q267 168 257.50 130.50Q248 93 230 63Q212 33 185 14Q158-5 123-5Q94-5 73.50 8Q53 21 40 43.50Q27 66 21.50 95Q16 124 16 156Q16 229 39 293.50Q62 358 99.50 410Q137 462 186 498.50Q235 535 287 552L305 510M157 314Q137 314 120 301.50Q103 289 90.50 267.50Q78 246 71 217.50Q64 189 63 158L63 149Q63 131 65.50 110Q68 89 75 71Q82 53 94 41.50Q106 30 125 30Q146 30 162.50 46Q179 62 190.50 87Q202 112 207.50 143Q213 174 213 204Q213 249 199 281.50Q185 314 157 314Z"  horiz-adv-x="305" vert-adv-y="1000"  />

      
      <glyph glyph-name="uni37" unicode="&#x37;" d="M34-90Q39-64 49-25Q59 14 73 59.50Q87 105 103.50 154.50Q120 204 139.50 252Q159 300 180.50 343.50Q202 387 224 421Q214 419 191 416.50Q168 414 139 414Q119 414 100 415.50Q81 417 64 419Q64 413 64.50 407.50Q65 402 65 397Q65 383 64 371Q63 359 62 348Q50 348 38.50 348.50Q27 349 16 350Q18 359 19.50 373.50Q21 388 21.50 403.50Q22 419 22.50 433.50Q23 448 23 457Q47 452 81.50 449.50Q116 447 153 447Q184 447 213.50 449.50Q243 452 268 458Q269 447 269.50 437Q270 427 272 416Q237 366 206 295.50Q175 225 151 152.50Q127 80 111.50 15Q96-50 91-90L34-90Z"  horiz-adv-x="270" vert-adv-y="1000"  />

      
      <glyph glyph-name="uni38" unicode="&#x38;" d="M211 563Q258 563 280 532Q302 501 302 459Q302 436 296 412Q290 388 278.50 366.50Q267 345 251 328Q235 311 214 301Q243 287 257 256Q271 225 271 187Q271 154 260.50 120Q250 86 230 58Q210 30 180.50 12.50Q151-5 114-5Q87-5 67 5Q47 15 34 32.50Q21 50 14.50 72.50Q8 95 8 120Q8 147 15.50 175.50Q23 204 37 229Q51 254 71.50 273.50Q92 293 119 303Q96 317 84.50 344.50Q73 372 73 404Q73 432 82 460Q91 488 108 511Q125 534 151 548.50Q177 563 211 563M166 284Q142 284 122.50 268Q103 252 89.50 227Q76 202 68.50 172Q61 142 61 114Q61 77 75 51Q89 25 118 25Q140 25 158.50 41.50Q177 58 190 84Q203 110 210.50 140.50Q218 171 218 200Q218 235 205.50 259.50Q193 284 166 284M208 533Q188 533 172 520Q156 507 145 486.50Q134 466 128 441.50Q122 417 122 394Q122 362 133.50 339.50Q145 317 169 317Q187 317 202.50 331Q218 345 229.50 366Q241 387 247 412.50Q253 438 253 462Q253 491 242 512Q231 533 208 533Z"  horiz-adv-x="300" vert-adv-y="1000"  />

      
      <glyph glyph-name="uni39" unicode="&#x39;" d="M49-57Q79-41 104-16Q129 9 149 39Q169 69 184.50 103.50Q200 138 211 174Q195 147 173 129.50Q151 112 122 112Q97 112 79 123.50Q61 135 49 154.50Q37 174 31.50 200Q26 226 26 255Q26 292 35.50 329.50Q45 367 63.50 397.50Q82 428 109 447Q136 466 172 466Q200 466 220.50 453.50Q241 441 254.50 418.50Q268 396 274.50 366Q281 336 281 301Q281 248 267 188Q253 128 226 72.50Q199 17 161-28.50Q123-74 75-99Q68-88 61.50-78Q55-68 49-57M130 147Q131 147 132 146.50Q133 146 134 146Q156 146 174.50 160.50Q193 175 206.50 198Q220 221 227.50 251Q235 281 235 311Q235 363 219.50 397Q204 431 172 431Q150 431 133 414Q116 397 104 371Q92 345 85.50 313Q79 281 79 251Q79 209 91.50 179Q104 149 130 147Z"  horiz-adv-x="306" vert-adv-y="1000"  />

      
      <glyph glyph-name="uni3a" unicode="&#x3a;" d="M102 348Q87 348 79.50 358Q72 368 72 382Q72 399 82.50 413.50Q93 428 113 428Q129 428 136 418.50Q143 409 143 395Q143 378 132.50 363Q122 348 102 348M43-7Q28-7 20.50 3Q13 13 13 27Q13 44 23.50 58.50Q34 73 54 73Q70 73 77 63.50Q84 54 84 40Q84 23 73.50 8Q63-7 43-7Z"  horiz-adv-x="129" vert-adv-y="1000"  />

      
      <glyph glyph-name="uni3b" unicode="&#x3b;" d="M-18-119Q-23-114-29-109.50Q-35-105-40-100Q-17-64-8.50-26.50Q0 11 0 46L46 46Q46 1 29-42.50Q12-86-18-119M102 348Q87 348 79.50 358Q72 368 72 382Q72 399 82.50 413.50Q93 428 113 428Q129 428 136 418.50Q143 409 143 395Q143 378 132.50 363Q122 348 102 348Z"  horiz-adv-x="138" vert-adv-y="1000"  />

      
      <glyph glyph-name="uni3c" unicode="&#x3c;" d="M16 394Q46 408 79 426Q107 441 140 461.50Q173 482 205 506L224 475Q192 453 161 435.50Q130 418 105 405Q76 390 49 379Q74 360 97.50 339.50Q121 319 139 302Q160 282 179 261L149 229Q130 252 108 276Q89 296 64 320Q39 344 12 367L16 394Z"  horiz-adv-x="255" vert-adv-y="1000"  />

      
      <glyph glyph-name="uni3d" unicode="&#x3d;" d="M200 220L194 188L14 188L20 220L200 220M216 312L210 280L30 280L36 312L216 312Z"  horiz-adv-x="222" vert-adv-y="1000"  />

      
      <glyph glyph-name="uni3e" unicode="&#x3e;" d="M226 341Q196 327 163 309Q135 294 102 273.50Q69 253 37 229Q27 246 18 260Q49 282 80.50 299.50Q112 317 137 330Q166 345 193 356Q167 374 144 395Q121 416 103 433Q82 453 63 474L93 506Q113 483 135 459Q154 439 178.50 414.50Q203 390 231 368L226 341Z"  horiz-adv-x="241" vert-adv-y="1000"  />

      
      <glyph glyph-name="uni3f" unicode="&#x3f;" d="M107 149Q114 200 131 240.50Q148 281 169 316Q190 351 212.50 382Q235 413 254 445Q273 477 285 510.50Q297 544 297 584Q297 634 275.50 665Q254 696 209 696Q184 696 164 684.50Q144 673 130.50 654Q117 635 110 611Q103 587 103 562Q103 525 116 498Q129 471 163 457L140 411Q117 417 100 430Q83 443 71.50 461.50Q60 480 54.50 502.50Q49 525 49 549Q49 582 59.50 614Q70 646 90 671.50Q110 697 140.50 712.50Q171 728 210 728Q274 728 314 690.50Q354 653 354 582Q354 538 341 502.50Q328 467 308 435Q288 403 263.50 372.50Q239 342 216 308Q193 274 175 233.50Q157 193 149 143L107 149M105-7Q90-7 82.50 3Q75 13 75 27Q75 44 85.50 58.50Q96 73 116 73Q132 73 139 63.50Q146 54 146 40Q146 23 135.50 8Q125-7 105-7Z"  horiz-adv-x="272" vert-adv-y="1000"  />

      
      <glyph glyph-name="uni40" unicode="&#x40;" d="M344 37Q364 37 386.50 71Q409 105 428 158Q447 211 459.50 276.50Q472 342 472 405Q472 450 464 491Q456 532 438.50 563Q421 594 392 612.50Q363 631 321 631Q276 631 236 608.50Q196 586 162.50 548Q129 510 102.50 459Q76 408 57.50 350.50Q39 293 29 232.50Q19 172 19 114Q19 55 30 2.50Q41-50 64-89.50Q87-129 122.50-152Q158-175 208-175Q266-175 316.50-142.50Q367-110 410.50-53.50Q454 3 492 79Q530 155 563 241Q568 241 574.50 236.50Q581 232 581 230L563 183Q533 106 497.50 36Q462-34 418.50-87.50Q375-141 322-173Q269-205 203-205Q146-205 105-179.50Q64-154 38-110.50Q12-67-0.50-9Q-13 49-13 113Q-13 175-2 239.50Q9 304 29 365Q49 426 78.50 480Q108 534 145.50 574Q183 614 227.50 637.50Q272 661 323 661Q373 661 407.50 639.50Q442 618 463.50 582Q485 546 494.50 498.50Q504 451 504 399Q504 329 489 257.50Q474 186 450 127.50Q426 69 395 32Q364-5 332-5Q288-5 288 84Q288 111 294 149Q283 117 270 88.50Q257 60 242 39Q227 18 209.50 5.50Q192-7 171-7Q139-7 124.50 26.50Q110 60 110 111Q110 146 116 185.50Q122 225 132.50 264Q143 303 158 339Q173 375 191 402Q209 429 230 445.50Q251 462 273 462Q302 462 316.50 442.50Q331 423 336 391Q340 407 343 423Q346 439 349 455L395 455Q375 360 358.50 273.50Q342 187 333 116Q330 92 330 74Q330 37 344 37M275 422Q254 422 233.50 389Q213 356 196.50 308Q180 260 170 206.50Q160 153 160 111Q160 79 167 59.50Q174 40 191 40Q207 40 225 63Q243 86 260 122.50Q277 159 291 205.50Q305 252 314 299Q317 320 317 341Q317 374 307.50 398Q298 422 275 422Z"  horiz-adv-x="563" vert-adv-y="1000"  />

      
      <glyph glyph-name="uni42" unicode="&#x42;" d="M313 237Q286 227 251 227Q193 227 149.50 248.50Q106 270 76.50 306Q47 342 32.50 389.50Q18 437 18 489Q18 558 44 629.50Q70 701 123 758.50Q176 816 255.50 852.50Q335 889 443 889Q513 889 576 872.50Q639 856 685.50 822.50Q732 789 759.50 738.50Q787 688 787 619Q787 581 777.50 545Q768 509 748 478Q728 447 697 423Q666 399 623 384Q677 367 717 337.50Q757 308 783 270.50Q809 233 821.50 189Q834 145 834 100Q834 39 811.50-20.50Q789-80 746-127Q703-174 640-203Q577-232 496-232Q416-232 359-223Q302-214 262-205Q218-229 172-229Q142-229 114-220L123-173Q139-171 153-170Q167-169 181-169Q198-169 213-170Q228-171 244-173Q278-151 309-104Q340-57 365.50 10.50Q391 78 411 163.50Q431 249 445 349Q484 629 524 748L579 734Q569 706 559.50 673.50Q550 641 541 601Q532 561 523.50 512Q515 463 507 403Q539 402 568 397Q607 409 637.50 431.50Q668 454 689.50 482.50Q711 511 722.50 544.50Q734 578 734 612Q734 676 708.50 723.50Q683 771 642.50 802Q602 833 551 848Q500 863 449 863Q353 863 282 829.50Q211 796 164 743Q117 690 93.50 625Q70 560 70 498Q70 453 82 413Q94 373 117.50 343Q141 313 176.50 295Q212 277 259 277Q279 277 301 282L313 237M508-203Q572-203 622-176.50Q672-150 706.50-106.50Q741-63 759-8Q777 47 777 104Q777 148 765.50 191Q754 234 730.50 270Q707 306 670.50 333Q634 360 584 374Q549 366 503 364Q489 252 468.50 163.50Q448 75 421 8Q394-59 362.50-106Q331-153 297-181Q339-189 389-196Q439-203 508-203Z"  horiz-adv-x="890" vert-adv-y="1000"  />

      
      <glyph glyph-name="uni43" unicode="&#x43;" d="M342 609Q333 614 314.50 620.50Q296 627 268 627Q225 627 189.50 611Q154 595 128.50 566.50Q103 538 88.50 499.50Q74 461 74 416Q74 350 101 302Q128 254 172.50 222.50Q217 191 274.50 175.50Q332 160 392 159Q393 240 407 325.50Q421 411 446 492Q471 573 507 644.50Q543 716 587.50 770Q632 824 685 855.50Q738 887 798 887Q838 887 868 872.50Q898 858 917.50 832Q937 806 946.50 770.50Q956 735 956 693Q956 641 941 582Q926 523 897 464Q868 405 825 349.50Q782 294 725.50 249.50Q669 205 599.50 174Q530 143 449 133Q449 67 457 8Q465-51 484-96.50Q503-142 535-170Q567-198 615-202Q609-176 606.50-145.50Q604-115 604-95Q604-42 615 9Q626 60 647 99.50Q668 139 699.50 163Q731 187 772 187Q800 187 821 176Q842 165 856 145.50Q870 126 877 100Q884 74 884 44Q884 3 870.50-41Q857-85 830.50-123.50Q804-162 764.50-190.50Q725-219 672-229Q689-276 718-309Q747-342 789-351Q784-362 780.50-373Q777-384 772-395Q744-389 720.50-374.50Q697-360 678.50-338.50Q660-317 646-290Q632-263 623-232Q563-229 520-201.50Q477-174 449.50-126.50Q422-79 408-14Q394 51 393 129Q298 129 228.50 153.50Q159 178 113 219Q67 260 45 313Q23 366 23 424Q23 479 41.50 526Q60 573 93 607Q126 641 171 660.50Q216 680 269 680Q305 680 330 672.50Q355 665 369 658L342 609M798 857Q751 857 708 827Q665 797 627.50 745.50Q590 694 559 625.50Q528 557 505 480.50Q482 404 468 322.50Q454 241 450 165Q525 176 587 206.50Q649 237 699 281Q749 325 787 378.50Q825 432 850.50 488Q876 544 888.50 599Q901 654 901 702Q901 771 875.50 814Q850 857 798 857M775 156Q744 156 720 137Q696 118 680 85.50Q664 53 655.50 10Q647-33 647-81Q647-111 650.50-141Q654-171 662-199Q705-189 738-161.50Q771-134 792.50-98Q814-62 825-21.50Q836 19 836 55Q836 97 821 125.50Q806 154 775 156Z"  horiz-adv-x="954" vert-adv-y="1000"  />

      
      <glyph glyph-name="uni44" unicode="&#x44;" d="M418-232Q381-232 351.50-229Q322-226 297.50-222Q273-218 253-213Q233-208 215-203Q179-224 140.50-227.50Q102-231 64-220L73-173Q110-168 137.50-168.50Q165-169 191-174Q241-144 281.50-66.50Q322 11 352 126Q276 128 219.50 157Q163 186 125.50 233Q88 280 69.50 341.50Q51 403 51 471Q51 570 84 648Q117 726 172.50 780.50Q228 835 301 863.50Q374 892 453 892Q544 892 619.50 860Q695 828 750 764.50Q805 701 835.50 606.50Q866 512 866 388Q866 314 854.50 239.50Q843 165 819 96Q795 27 758.50-33Q722-93 672-137Q622-181 558.50-206.50Q495-232 418-232M595 526Q625 493 637.50 453Q650 413 646.50 371.50Q643 330 625 290Q607 250 576.50 217Q546 184 503.50 160.50Q461 137 410 129Q378 8 335.50-68.50Q293-145 243-184Q275-191 316-197Q357-203 418-203Q517-203 589-152.50Q661-102 708-20.50Q755 61 777.50 163.50Q800 266 800 370Q800 487 775 578.50Q750 670 704.50 733.50Q659 797 595.50 830Q532 863 454 863Q377 863 313 832.50Q249 802 202.50 749Q156 696 130 623.50Q104 551 104 467Q104 403 121 346.50Q138 290 170.50 248Q203 206 250.50 181.50Q298 157 359 156Q380 245 395 349Q434 629 474 748L529 734Q518 704 508 668.50Q498 633 488.50 589Q479 545 470 490Q461 435 453 366Q446 308 437 257Q428 206 417 160Q485 172 526.50 209Q568 246 585 294Q602 342 595 393.50Q588 445 559 484L595 526L595 526Z"  horiz-adv-x="918" vert-adv-y="1000"  />

      
      <glyph glyph-name="uni45" unicode="&#x45;" d="M555 371Q553 370 546 370Q503 370 471 387Q408 372 360 336Q312 300 280.50 252Q249 204 233 148.50Q217 93 217 39Q217-9 229.50-53Q242-97 267.50-130.50Q293-164 331.50-184Q370-204 421-204Q479-204 522.50-178.50Q566-153 594-114Q622-75 636-27Q650 21 650 66Q650 96 644 122.50Q638 149 626 169.50Q614 190 596.50 201.50Q579 213 556 213Q532 213 513.50 201.50Q495 190 481.50 171Q468 152 461 127.50Q454 103 454 77Q454 54 460 31Q466 8 477-12L423-39Q410-16 404 10.50Q398 37 398 63Q398 98 408.50 131.50Q419 165 439.50 191Q460 217 490 232.50Q520 248 558 248Q595 248 622.50 233.50Q650 219 668.50 194Q687 169 696 136Q705 103 705 66Q705 15 687-38.50Q669-92 633-135.50Q597-179 542.50-206.50Q488-234 416-234Q351-234 303-211.50Q255-189 222.50-151.50Q190-114 174-64.50Q158-15 158 39Q158 96 176 153.50Q194 211 229.50 261.50Q265 312 318.50 350.50Q372 389 443 407Q427 418 415 434Q403 450 394 470Q375 468 355 466.50Q335 465 313 465Q232 465 174 482.50Q116 500 79 528.50Q42 557 25 592.50Q8 628 8 664Q8 694 19 722Q30 750 51 771Q72 792 101.50 805Q131 818 167 818Q272 818 324 726Q313 718 302 710Q291 702 280 694Q263 728 235.50 750Q208 772 167 772Q141 772 120.50 763.50Q100 755 86 740Q72 725 64.50 705.50Q57 686 57 664Q57 635 71.50 605Q86 575 117 550.50Q148 526 196.50 510.50Q245 495 313 495Q332 495 348.50 496.50Q365 498 382 500Q365 551 365 609Q365 660 378 709Q391 758 417 797Q443 836 481 859.50Q519 883 569 883Q631 883 663.50 845.50Q696 808 696 749Q696 711 681 670.50Q666 630 635.50 593Q605 556 557.50 526Q510 496 446 480Q454 459 465.50 443Q477 427 493 417Q507 419 521.50 420.50Q536 422 550 422Q558 422 561 421L555 371M573 855Q535 855 506.50 834.50Q478 814 459 780.50Q440 747 430.50 703Q421 659 421 613Q421 560 435 512Q489 527 528 555Q567 583 592 617Q617 651 629 687.50Q641 724 641 756Q641 797 623 825Q605 853 573 855Z"  horiz-adv-x="756" vert-adv-y="1000"  />

      
      <glyph glyph-name="uni46" unicode="&#x46;" d="M629 143Q622 155 619.50 168Q617 181 617 194Q617 227 636 254.50Q655 282 685.50 302Q716 322 753.50 334Q791 346 829 348Q838 435 850 502Q862 569 876 620Q890 671 904.50 707.50Q919 744 933 769Q908 764 880 764Q825 764 767.50 775Q710 786 648 798.50Q586 811 517.50 822Q449 833 371 833Q293 833 234.50 805.50Q176 778 136.50 734Q97 690 77.50 634.50Q58 579 58 524Q58 476 73 431Q88 386 117.50 351.50Q147 317 191.50 296Q236 275 296 275Q354 275 396 293.50Q438 312 464.50 343.50Q491 375 503.50 415.50Q516 456 516 501Q516 526 513 553L567 563Q569 549 570.50 534.50Q572 520 572 506Q572 455 556.50 407.50Q541 360 508 324Q475 288 422.50 266.50Q370 245 297 245Q223 245 167.50 269Q112 293 75 332.50Q38 372 20 423.50Q2 475 2 530Q2 593 25.50 655.50Q49 718 96 768Q143 818 212.50 849Q282 880 374 880Q455 880 527.50 867.50Q600 855 664.50 839.50Q729 824 784.50 811.50Q840 799 887 799Q910 799 926.50 800.50Q943 802 955 804Q978 834 997 845Q1016 856 1027 858L1050 829Q1042 814 1025.50 801Q1009 788 983 778Q973 762 962 735Q951 708 939.50 664.50Q928 621 916.50 559Q905 497 895 411L888 351Q917 355 938 361.50Q959 368 975 378Q983 398 990 414Q997 430 1002 441Q1008 454 1014 464Q1023 460 1032 455.50Q1041 451 1049 447Q1047 427 1035.50 402.50Q1024 378 997 358Q992 326 984.50 272Q977 218 977 151L931 151Q931 205 940 252.50Q949 300 961 339Q946 331 927 325.50Q908 320 884 317Q863 149 824.50 41.50Q786-66 736-127.50Q686-189 628.50-212Q571-235 513-235Q457-235 416.50-219.50Q376-204 350-179Q324-154 311.50-122Q299-90 299-57Q299-26 309 3Q319 32 337 54.50Q355 77 380.50 90.50Q406 104 437 105Q438 91 438.50 77Q439 63 439 49Q400 48 376.50 16Q353-16 353-61Q353-88 362.50-113.50Q372-139 391.50-159Q411-179 442-191Q473-203 516-203Q562-203 608-183Q654-163 695.50-106.50Q737-50 770 50.50Q803 151 824 313Q793 310 765 302Q737 294 716 280Q695 266 682.50 246.50Q670 227 670 202Q670 184 678 162L629 143Z"  horiz-adv-x="1045" vert-adv-y="1000"  />

      
      <glyph glyph-name="uni47" unicode="&#x47;" d="M850 297Q841 272 831 249.50Q821 227 809 204Q807 198 803 175Q799 152 793 117Q787 82 779 36Q771-10 761-64Q752-117 738-168Q724-219 700.50-260Q677-301 640.50-326Q604-351 549-351Q515-351 489.50-340Q464-329 447.50-311Q431-293 423-269.50Q415-246 415-222Q415-198 423-175Q431-152 446.50-133.50Q462-115 485-103.50Q508-92 538-91Q540-105 541.50-118Q543-131 545-145Q505-149 485-176.50Q465-204 465-236Q465-252 470.50-267.50Q476-283 486.50-295Q497-307 513.50-314Q530-321 552-321Q594-321 620.50-298.50Q647-276 663.50-239Q680-202 690-155.50Q700-109 708-62Q714-26 720.50 11.50Q727 49 735 87Q709 47 668.50 20.50Q628-6 569-6Q532-6 502.50 8Q473 22 450.50 47Q428 72 412 106.50Q396 141 387 182Q358 179 328 179Q242 179 180 202Q118 225 78 262Q38 299 19 346Q0 393 0 441Q0 485 15.50 526.50Q31 568 60 600.50Q89 633 131.50 652.50Q174 672 228 672Q275 672 315 649L293 607Q276 617 258 622.50Q240 628 217 628Q176 628 143.50 611.50Q111 595 88.50 568Q66 541 53.50 506Q41 471 41 434Q41 393 57 352.50Q73 312 108 280Q143 248 197 228.50Q251 209 328 209Q342 209 355 209Q368 209 381 211Q377 235 375 261Q373 287 373 314Q373 378 383.50 445Q394 512 415 575.50Q436 639 466.50 695.50Q497 752 536.50 794Q576 836 624 860.50Q672 885 729 885Q769 885 798.50 870.50Q828 856 847.50 831Q867 806 876.50 772Q886 738 886 698Q886 652 873 600Q860 548 834.50 496Q809 444 771.50 395Q734 346 684.50 304.50Q635 263 573.50 233Q512 203 440 189Q454 115 488.50 69Q523 23 582 23Q623 23 652 38.50Q681 54 701.50 79.50Q722 105 735.50 137Q749 169 759.50 202Q770 235 779 266Q788 297 799 320L850 297L850 297M829 703Q829 773 802.50 811.50Q776 850 724 850Q679 850 639.50 826Q600 802 567.50 761Q535 720 509.50 665.50Q484 611 466 550.50Q448 490 439 426Q430 362 430 303Q430 281 431.50 260.50Q433 240 435 220Q501 234 556 263.50Q611 293 655 332.50Q699 372 731.50 419Q764 466 785.50 515Q807 564 818 612.50Q829 661 829 703Z"  horiz-adv-x="888" vert-adv-y="1000"  />

      
      <glyph glyph-name="uni48" unicode="&#x48;" d="M1145 727Q1147 738 1147 747.50Q1147 757 1147 765Q1147 807 1126.50 829.50Q1106 852 1083 852Q1044 852 1011.50 811.50Q979 771 951.50 698Q924 625 902 524.50Q880 424 861 304Q842 184 826.50 49Q811-86 797-227L730-227Q747-92 761 7.50Q775 107 785 176Q790 216 795 249.50Q800 283 805 312Q760 307 721 307.50Q682 308 631 308Q604 177 569.50 75Q535-27 484.50-96.50Q434-166 365-201Q296-236 200-232Q142-229 93-207.50Q44-186 8.50-150Q-27-114-47-65Q-67-16-67 43Q-67 100-47.50 156.50Q-28 213 8.50 258Q45 303 96.50 331.50Q148 360 212 360Q251 360 284 347Q317 334 340.50 310.50Q364 287 377.50 253.50Q391 220 391 179Q391 164 387 144.50Q383 125 376.50 105Q370 85 360.50 66.50Q351 48 340 35L294 68Q306 83 315.50 100.50Q325 118 332 136Q339 154 343 171Q347 188 347 202Q347 227 339 250.50Q331 274 315.50 292Q300 310 276 320.50Q252 331 220 331Q163 331 119 307.50Q75 284 45.50 244.50Q16 205 1 154Q-14 103-14 48Q-14-6 1.50-51.50Q17-97 46.50-130.50Q76-164 119-183.50Q162-203 217-204Q293-206 349.50-170Q406-134 448-66.50Q490 1 519.50 95.50Q549 190 571 306Q541 304 521 297Q501 290 480 279L461 320Q486 332 517 338.50Q548 345 579 346Q589 399 597.50 447.50Q606 496 616 544.50Q626 593 637.50 643.50Q649 694 665 751Q638 736 606 725.50Q574 715 541.50 705Q509 695 479 684Q449 673 426 658Q403 643 389 622Q375 601 375 572Q375 526 406 506.50Q437 487 489 487L482 436Q407 440 369 471.50Q331 503 331 560Q331 599 351 626.50Q371 654 402.50 673.50Q434 693 473 707Q512 721 550.50 733.50Q589 746 622.50 759Q656 772 677 790L705 882L755 871Q754 851 746 827.50Q738 804 724 782Q708 725 696.50 670.50Q685 616 675 562.50Q665 509 656.50 455.50Q648 402 638 346Q671 345 694 342Q717 339 736 337.50Q755 336 772 336Q789 336 809 341Q836 494 867 598.50Q898 703 933 767.50Q968 832 1008 860Q1048 888 1092 888Q1143 888 1173 855Q1203 822 1203 756Q1203 750 1203 743.50Q1203 737 1202 730L1145 727Z"  horiz-adv-x="944" vert-adv-y="1000"  />

      
      <glyph glyph-name="uni49" unicode="&#x49;" d="M582 876Q577 827 555 793L543 743Q517 629 498.50 514.50Q480 400 464.50 281Q449 162 433 36Q417-90 396-227L328-227Q349-84 367.50 40.50Q386 165 405 280.50Q424 396 445.50 507Q467 618 494 734Q456 701 408.50 670.50Q361 640 311.50 609Q262 578 214.50 545Q167 512 130 474.50Q93 437 70.50 394Q48 351 48 300Q48 263 59 234.50Q70 206 89 186Q108 166 133.50 155.50Q159 145 188 145Q214 145 234 154.50Q254 164 268 179Q282 194 289 213.50Q296 233 296 253Q296 281 281.50 306Q267 331 236 343Q243 354 248.50 364.50Q254 375 261 386Q309 367 330.50 330.50Q352 294 352 252Q352 223 341.50 194.50Q331 166 310 144Q289 122 258.50 108.50Q228 95 188 95Q146 95 110 109Q74 123 48 149Q22 175 7 211Q-8 247-8 291Q-8 353 19.50 404Q47 455 91.50 498Q136 541 192 578Q248 615 305 648Q362 681 414 712Q466 743 503 775Q508 801 515 828.50Q522 856 530 882L582 876Z"  horiz-adv-x="541" vert-adv-y="1000"  />

      
      <glyph glyph-name="uni4a" unicode="&#x4a;" d="M163-324Q210-324 244-288Q278-252 302.50-195.50Q327-139 342.50-69.50Q358 0 368.50 67Q379 134 385 190.50Q391 247 396 279Q414 404 436.50 510Q459 616 482 697Q440 651 391.50 609Q343 567 296 526.50Q249 486 205.50 446Q162 406 129 364Q96 322 76.50 277.50Q57 233 57 183Q57 147 67.50 118.50Q78 90 96 69.50Q114 49 138.50 38.50Q163 28 191 28Q216 28 236 37.50Q256 47 269.50 62.50Q283 78 290 97Q297 116 297 136Q297 163 283.50 185.50Q270 208 241 218L260 258Q299 247 319 213.50Q339 180 339 141Q339 114 330 88Q321 62 302.50 41.50Q284 21 256.50 8Q229-5 192-5Q152-5 116 8Q80 21 52.50 46Q25 71 9 108.50Q-7 146-7 195Q-7 264 26 323Q59 382 109.50 433.50Q160 485 219 529Q278 573 329 612Q378 649 420 685.50Q462 722 493 755Q511 807 528.50 839.50Q546 872 556 886L593 865Q584 836 569 805Q554 774 537 744Q528 702 517.50 647.50Q507 593 496 530.50Q485 468 474.50 399Q464 330 454 258Q445 198 434 129Q423 60 408-8Q393-76 371.50-138.50Q350-201 321-249Q292-297 253-325.50Q214-354 163-354Q111-354 81-323.50Q51-293 51-243Q51-216 60.50-191Q70-166 88-147.50Q106-129 130.50-117.50Q155-106 185-106L187-157Q145-160 119-187Q93-214 93-251Q93-287 112.50-305.50Q132-324 163-324Z"  horiz-adv-x="527" vert-adv-y="1000"  />

      
      <glyph glyph-name="uni4b" unicode="&#x4b;" d="M252-204Q331-204 388-167.50Q445-131 485.50-68Q526-5 553 78.50Q580 162 600 256Q593 256 586.50 256Q580 256 573 257L582 307Q595 305 609 301Q629 409 648.50 522.50Q668 636 697 750Q655 726 605 713Q555 700 512 685Q469 670 440 645Q411 620 411 572Q411 530 440.50 510Q470 490 516 490L509 436Q437 438 398 473.50Q359 509 359 564Q359 605 377 633Q395 661 424.50 681Q454 701 491.50 714.50Q529 728 568 740Q607 752 643.50 763.50Q680 775 708 791Q715 813 722.50 836Q730 859 738 882L796 870Q791 841 779 820Q767 799 749 782Q732 720 720 658.50Q708 597 698.50 536Q689 475 680 414.50Q671 354 660 294Q716 314 755 367Q794 420 825 488Q856 556 882.50 629.50Q909 703 939.50 764.50Q970 826 1009.50 865.50Q1049 905 1105 905Q1143 905 1168 880.50Q1193 856 1189 816L1143 816L1143 821Q1143 843 1131.50 858Q1120 873 1099 873Q1069 873 1046 850Q1023 827 1003.50 789.50Q984 752 965.50 702.50Q947 653 927.50 600Q908 547 884 494Q860 441 829.50 396Q799 351 760 317Q721 283 669 268Q709 236 737.50 182.50Q766 129 789.50 67Q813 5 834.50-58.50Q856-122 881.50-173.50Q907-225 940-257.50Q973-290 1020-290Q1046-290 1065-282Q1084-274 1097-260.50Q1110-247 1118-229Q1126-211 1130-191Q1143-194 1155-198Q1167-202 1180-205Q1165-256 1130-289.50Q1095-323 1028-323Q961-323 915-290Q869-257 836.50-204Q804-151 781.50-86Q759-21 739.50 42.50Q720 106 699.50 161.50Q679 217 651 251Q631 154 603.50 66Q576-22 530.50-88.50Q485-155 416.50-194.50Q348-234 246-234Q172-234 119.50-210Q67-186 33-147Q-1-108-17-57.50Q-33-7-33 46Q-33 104-14.50 161Q4 218 39.50 263Q75 308 127.50 336Q180 364 249 364Q292 364 325.50 348.50Q359 333 382 306.50Q405 280 417 245.50Q429 211 429 173Q429 138 418 101.50Q407 65 384 32L337 60Q358 92 368 124Q378 156 378 185Q378 215 368.50 241.50Q359 268 341.50 287.50Q324 307 299.50 318.50Q275 330 245 330Q192 330 150.50 304.50Q109 279 79.50 238.50Q50 198 34.50 146Q19 94 19 42Q19-5 32.50-49.50Q46-94 74.50-128.50Q103-163 147-183.50Q191-204 252-204Z"  horiz-adv-x="914" vert-adv-y="1000"  />

      
      <glyph glyph-name="uni4c" unicode="&#x4c;" d="M335 161Q374 161 410 166.50Q446 172 478 183Q486 221 492 264Q498 307 503 356Q515 468 530 551Q545 634 562.50 693Q580 752 600.50 790Q621 828 644 849.50Q667 871 692.50 879Q718 887 746 887Q778 887 802 872.50Q826 858 842.50 832Q859 806 867 770.50Q875 735 875 693Q875 626 854 548.50Q833 471 790 398.50Q747 326 683 265Q619 204 532 169Q514 81 490 18Q466-45 437-90Q480-105 519-123Q558-141 595.50-156.50Q633-172 672-182Q711-192 754-192Q785-192 806-183Q827-174 840.50-160Q854-146 860.50-130.50Q867-115 870-101Q883-104 895.50-107Q908-110 921-114Q915-138 902.50-160Q890-182 869.50-198.50Q849-215 820.50-224.50Q792-234 755-234Q708-234 665-223Q622-212 580.50-195.50Q539-179 498-159.50Q457-140 415-123Q365-187 308-210.50Q251-234 191-234Q144-234 113.50-212.50Q83-191 83-149Q83-131 91.50-113.50Q100-96 117.50-81.50Q135-67 161-58.50Q187-50 223-50Q271-50 312.50-56.50Q354-63 391-74Q415-35 435 19.50Q455 74 471 149Q439 141 405.50 136Q372 131 335 131Q241 131 174 155.50Q107 180 63.50 219.50Q20 259-0.50 309Q-21 359-21 411Q-21 460-4 506Q13 552 45.50 588Q78 624 124 646Q170 668 229 668Q260 668 284.50 662Q309 656 333 642Q327 629 320.50 617Q314 605 308 593Q291 604 271.50 608.50Q252 613 229 613Q181 613 143.50 595.50Q106 578 80 549Q54 520 40.50 482.50Q27 445 27 405Q27 361 44.50 317.50Q62 274 99.50 239Q137 204 195.50 182.50Q254 161 335 161M745 857Q719 857 693.50 839Q668 821 644 767.50Q620 714 599 615.50Q578 517 561 356Q556 316 551 280.50Q546 245 540 212Q613 249 666.50 309Q720 369 755 437.50Q790 506 806.50 576.50Q823 647 823 706Q823 772 803 814.50Q783 857 745 857M199-205Q247-205 291-183Q335-161 374-105Q339-93 302.50-86Q266-79 227-79Q203-79 184.50-85.50Q166-92 153.50-102.50Q141-113 134.50-125.50Q128-138 128-151Q128-172 146-188.50Q164-205 199-205Z"  horiz-adv-x="809" vert-adv-y="1000"  />

      
      <glyph glyph-name="uni4d" unicode="&#x4d;" d="M279-199Q357-199 426-148.50Q495-98 552-15.50Q609 67 652.50 172.50Q696 278 723 389Q713 465 706.50 539.50Q700 614 700 689Q700 711 702 731Q704 751 709.50 766.50Q715 782 723.50 791Q732 800 744 800Q772 800 780.50 770Q789 740 789 686Q789 619 783.50 554.50Q778 490 767 427Q781 328 793.50 220.50Q806 113 812 12Q842 93 880.50 181.50Q919 270 958 359Q970 558 1015 779Q1018 795 1024 813Q1030 831 1039 846.50Q1048 862 1060.50 872Q1073 882 1091 882Q1116 882 1127 863Q1138 844 1138 810Q1138 777 1127.50 733.50Q1117 690 1099.50 638.50Q1082 587 1058.50 529Q1035 471 1008 409Q997 251 1003.50 109Q1010-33 1033.50-141Q1057-249 1099-312.50Q1141-376 1201-376Q1253-376 1283-351Q1313-326 1337-271L1390-289Q1362-359 1317-392Q1272-425 1207-425Q1142-425 1092.50-372Q1043-319 1010.50-224.50Q978-130 963.50 1Q949 132 955 288Q917 200 880 115.50Q843 31 815-46Q817-94 815.50-137.50Q814-181 809-218L757-216Q757-170 774-105Q772-1 760.50 97Q749 195 736 290Q704 177 656.50 82Q609-13 549-81.50Q489-150 418-188.50Q347-227 270-227Q212-227 163-206Q114-185 78.50-148Q43-111 23-61Q3-11 3 48Q3 105 22.50 161.50Q42 218 78.50 263Q115 308 166.50 336.50Q218 365 282 365Q321 365 354 352Q387 339 410.50 315.50Q434 292 447.50 258.50Q461 225 461 184Q461 169 457 149.50Q453 130 446.50 110Q440 90 430.50 71.50Q421 53 410 40L364 73Q376 88 385.50 105.50Q395 123 402 141Q409 159 413 176Q417 193 417 207Q417 232 409 255.50Q401 279 385.50 297Q370 315 346 325.50Q322 336 290 336Q233 336 189 312.50Q145 289 115.50 249.50Q86 210 71 159Q56 108 56 53Q56-1 70.50-47Q85-93 113-126.50Q141-160 182.50-179.50Q224-199 279-199M1113 811Q1113 833 1108.50 844Q1104 855 1092 855Q1079 855 1071 836.50Q1063 818 1056 782Q1042 709 1032 635.50Q1022 562 1015 489Q1057 589 1085 672.50Q1113 756 1113 811M766 709Q766 748 761 763Q756 778 748 778Q739 778 736 760Q733 742 734 709.50Q735 677 740 632.50Q745 588 752 535Q759 581 762.50 624.50Q766 668 766 709Z"  horiz-adv-x="1143" vert-adv-y="1000"  />

      
      <glyph glyph-name="uni4e" unicode="&#x4e;" d="M1230 847Q1154 847 1090 783.50Q1026 720 975.50 608.50Q925 497 889 345.50Q853 194 834 19Q851-49 854-109Q857-169 850-218L799-216Q799-175 800-135Q801-95 803-55Q783 34 744 126.50Q705 219 664 311Q651 245 632 179.50Q613 114 587 54Q561-6 528-57.50Q495-109 455.50-146.50Q416-184 369.50-205.50Q323-227 270-227Q212-227 163-206Q114-185 78.50-148Q43-111 23-61Q3-11 3 48Q3 105 22.50 161.50Q42 218 78.50 263Q115 308 166.50 336.50Q218 365 282 365Q321 365 354 352Q387 339 410.50 315.50Q434 292 447.50 258.50Q461 225 461 184Q461 169 457 149.50Q453 130 446.50 110Q440 90 430.50 71.50Q421 53 410 40L364 73Q376 88 385.50 105.50Q395 123 402 141Q409 159 413 176Q417 193 417 207Q417 232 409 255.50Q401 279 385.50 297Q370 315 346 325.50Q322 336 290 336Q233 336 189 312.50Q145 289 115.50 249.50Q86 210 71 159Q56 108 56 53Q56-1 70.50-47Q85-93 113-126.50Q141-160 182.50-179.50Q224-199 279-199Q329-199 372-175Q415-151 451-109.50Q487-68 516.50-12.50Q546 43 569 107Q592 171 608.50 240Q625 309 636 376Q600 461 574.50 542Q549 623 549 696Q549 740 561.50 770Q574 800 604 800Q631 800 649.50 769.50Q668 739 678 687Q688 635 688.50 565.50Q689 496 680 419Q712 344 746 263Q780 182 809 103L816 83Q828 191 849 293.50Q870 396 899 486.50Q928 577 965 652Q1002 727 1045.50 781.50Q1089 836 1138.50 866Q1188 896 1244 896Q1292 896 1325.50 880Q1359 864 1383 833L1343 793Q1326 820 1296 833.50Q1266 847 1230 847M584 717Q585 679 603 621.50Q621 564 650 493Q655 553 654.50 604.50Q654 656 649 694Q644 732 633.50 754Q623 776 608 776Q593 776 588.50 759.50Q584 743 584 717Z"  horiz-adv-x="967" vert-adv-y="1000"  />

      
      <glyph glyph-name="uni4f" unicode="&#x4f;" d="M930 849Q988 814 1022.50 749.50Q1057 685 1070.50 602.50Q1084 520 1077 426Q1070 332 1046 239.50Q1022 147 982 61.50Q942-24 889-89Q836-154 771-193Q706-232 632-232Q568-232 521.50-203.50Q475-175 443.50-125.50Q412-76 395-9.50Q378 57 375 132L369 132Q280 132 214.50 155Q149 178 105.50 216.50Q62 255 39.50 303.50Q17 352 13.50 402.50Q10 453 25.50 501.50Q41 550 74 588.50Q107 627 156.50 650Q206 673 270 673Q299 673 318 668Q337 663 360 649L329 596Q312 607 292 612.50Q272 618 249 618Q181 618 134.50 584Q88 550 66.50 498.50Q45 447 50.50 387.50Q56 328 92 276.50Q128 225 197 191Q266 157 372 157L375 157Q374 237 387 322.50Q400 408 425 489Q450 570 486.50 642Q523 714 569.50 768Q616 822 671.50 853.50Q727 885 790 885Q844 885 877.50 855Q911 825 925 775.50Q939 726 933.50 662Q928 598 904 530Q880 462 838 395.50Q796 329 736.50 274.50Q677 220 600 182.50Q523 145 429 135Q429 64 440.50 2Q452-60 477-106.50Q502-153 540.50-180Q579-207 633-207Q700-207 757.50-167.50Q815-128 861-63Q907 2 941 87Q975 172 996 263Q1017 354 1023.50 445Q1030 536 1021 613Q1012 690 986.50 747Q961 804 918 827L930 849M790 860Q740 860 694.50 829.50Q649 799 609.50 747Q570 695 537.50 626Q505 557 481.50 479Q458 401 444.50 319Q431 237 429 160Q517 169 588 204Q659 239 714 290Q769 341 807.50 403Q846 465 868.50 528.50Q891 592 897.50 651.50Q904 711 894 757.50Q884 804 858 832Q832 860 790 860Z"  horiz-adv-x="1124" vert-adv-y="1000"  />

      
      <glyph glyph-name="uni50" unicode="&#x50;" d="M360 261Q340 250 316 244Q292 238 263 238Q207 238 160.50 257Q114 276 81 311.50Q48 347 29.50 397.50Q11 448 11 511Q11 579 36.50 646.50Q62 714 114.50 768Q167 822 246 855.50Q325 889 432 889Q531 889 602.50 859.50Q674 830 720.50 782Q767 734 789.50 672Q812 610 812 545Q812 480 790.50 416.50Q769 353 728.50 302Q688 251 629.50 218Q571 185 496 179Q479 75 456-2Q433-79 400.50-130.50Q368-182 324.50-207.50Q281-233 224-233Q185-233 152.50-221.50Q120-210 96.50-188.50Q73-167 59.50-135.50Q46-104 46-64Q46-36 56.50-7.50Q67 21 85.50 43.50Q104 66 129 80.50Q154 95 184 96L184 45Q164 43 147 33Q130 23 117.50 7Q105-9 98-29.50Q91-50 91-72Q91-100 100.50-124Q110-148 127-165.50Q144-183 169-193Q194-203 224-203Q278-203 316.50-166.50Q355-130 382.50-58.50Q410 13 429 119Q448 225 463 365Q477 492 499 589Q521 686 554 752Q568 747 583 742Q598 737 612 732Q585 681 563 601Q541 521 526 402Q520 352 514 304Q508 256 501 210Q561 218 608.50 249.50Q656 281 688.50 327.50Q721 374 738.50 430.50Q756 487 756 545Q756 604 737 660.50Q718 717 677.50 761Q637 805 575 832Q513 859 426 859Q334 859 265.50 828.50Q197 798 152 749.50Q107 701 84.50 640.50Q62 580 62 519Q62 463 76.50 420.50Q91 378 116.50 349Q142 320 177.50 305Q213 290 256 290Q282 290 300.50 294.50Q319 299 338 310L360 261Z"  horiz-adv-x="824" vert-adv-y="1000"  />

      
      <glyph glyph-name="uni51" unicode="&#x51;" d="M158-176Q195-176 211.50-178.50Q228-181 239-183Q330-133 405-46.50Q480 40 534 144Q588 248 617.50 358.50Q647 469 647 567Q647 628 634 681Q621 734 594 772.50Q567 811 525 833Q483 855 425 855Q366 855 317 833.50Q268 812 228 775Q188 738 158 689Q128 640 107.50 584.50Q87 529 77 470.50Q67 412 67 357Q67 301 77.50 251.50Q88 202 109 164.50Q130 127 162 105.50Q194 84 237 84Q280 84 314 105Q348 126 371.50 160.50Q395 195 407 238Q419 281 419 325Q419 382 397.50 433Q376 484 331 511L376 560Q427 527 450 470.50Q473 414 473 350Q473 296 457 243Q441 190 411 148Q381 106 337 80Q293 54 238 54Q179 54 135.50 79.50Q92 105 63 148.50Q34 192 19.50 249.50Q5 307 5 372Q5 430 17 491Q29 552 52.50 609Q76 666 111.50 716Q147 766 193.50 804Q240 842 298 863.50Q356 885 425 885Q500 885 554 859.50Q608 834 643 790Q678 746 694.50 686Q711 626 711 556Q711 458 681 349.50Q651 241 595.50 138.50Q540 36 462-51Q384-138 288-192Q355-207 422-228.50Q489-250 554.50-269.50Q620-289 684-302.50Q748-316 808-316Q849-316 877-305.50Q905-295 922.50-277Q940-259 948-236Q956-213 958-188L1028-195Q1028-231 1016-262Q1004-293 978.50-315.50Q953-338 913-351Q873-364 818-364Q759-364 685.50-344.50Q612-325 535.50-299.50Q459-274 384.50-249.50Q310-225 248-214Q247-214 247-214.50Q247-215 246-215Q225-227 200-235Q175-243 149-238L158-176Z"  horiz-adv-x="720" vert-adv-y="1000"  />

      
      <glyph glyph-name="uni52" unicode="&#x52;" d="M62 519Q62 463 76.50 420.50Q91 378 116.50 349Q142 320 177.50 305Q213 290 256 290Q282 290 300.50 294.50Q319 299 338 310L360 261Q340 250 316 244Q292 238 263 238Q207 238 160.50 257Q114 276 81 311.50Q48 347 29.50 397.50Q11 448 11 511Q11 579 36.50 646.50Q62 714 114.50 768Q167 822 246 855.50Q325 889 432 889Q531 889 602 860Q673 831 719.50 783Q766 735 788 673.50Q810 612 810 548Q810 486 790.50 425.50Q771 365 733.50 314.50Q696 264 642.50 229.50Q589 195 521 185Q547 166 568.50 132Q590 98 608.50 56Q627 14 644.50-33Q662-80 679.50-126Q697-172 716.50-214.50Q736-257 759.50-289.50Q783-322 812-341Q841-360 878-360Q904-360 922.50-352Q941-344 954-330.50Q967-317 975-299Q983-281 988-261Q1000-264 1012.50-268Q1025-272 1037-275Q1029-300 1017.50-321.50Q1006-343 989-358.50Q972-374 948-383Q924-392 893-392Q826-392 778-359.50Q730-327 695-276Q660-225 634-162.50Q608-100 586-38.50Q564 23 542 76Q520 129 493 160Q476 60 452.50-14Q429-88 396.50-136.50Q364-185 321.50-209Q279-233 224-233Q180-233 147-219.50Q114-206 91.50-183Q69-160 57.50-129.50Q46-99 46-64Q46-34 56-5.50Q66 23 84 45.50Q102 68 127 81.50Q152 95 183 97Q183 84 183.50 71Q184 58 184 45Q164 44 147 33.50Q130 23 117.50 7Q105-9 98-29.50Q91-50 91-72Q91-100 100.50-124Q110-148 127-165.50Q144-183 169-193Q194-203 224-203Q305-203 357-111.50Q409-20 439 164Q435 164 431 164Q427 164 423 165L429 219Q434 219 438 217.50Q442 216 445 216L463 365Q477 492 499 589Q521 686 554 752Q568 747 583 742Q598 737 612 732Q586 681 563 601Q540 521 526 402Q520 353 514 305.50Q508 258 501 213Q559 220 606 252Q653 284 686 331Q719 378 736.50 435.50Q754 493 754 552Q754 610 735 665.50Q716 721 676.50 764Q637 807 575 833Q513 859 426 859Q333 859 264.50 828.50Q196 798 151 749.50Q106 701 84 640.50Q62 580 62 519Z"  horiz-adv-x="800" vert-adv-y="1000"  />

      
      <glyph glyph-name="uni53" unicode="&#x53;" d="M26 174Q64 144 109.50 127.50Q155 111 215 106Q214 109 214 116L214 136Q214 211 235.50 285Q257 359 298.50 417Q340 475 401 511Q462 547 542 547Q593 547 631.50 528Q670 509 696.50 476Q723 443 738 399.50Q753 356 756 308Q791 338 823 369.50Q855 401 883 435Q882 447 882 459.50Q882 472 882 484Q882 680 914.50 782Q947 884 1016 884Q1053 884 1069 859Q1085 834 1085 799Q1085 730 1047.50 641Q1010 552 941 458Q941 431 942 404Q943 377 943 351Q943 237 917.50 131.50Q892 26 841-55Q790-136 712.50-184Q635-232 531-232Q465-232 417-214.50Q369-197 335-169.50Q301-142 279-108Q257-74 244.50-40.50Q232-7 226 22.50Q220 52 218 70Q161 70 102 86.50Q43 103-3 131L26 174M619-40Q611-28 603-16Q595-4 587 7Q642 47 673.50 110.50Q705 174 713 243Q619 171 509 125Q399 79 275 70Q282 14 302.50-34.50Q323-83 356.50-119Q390-155 437.50-176Q485-197 547-197Q628-197 691-155Q754-113 796.50-40.50Q839 32 861.50 129Q884 226 884 336L884 396Q855 364 823 332Q791 300 756 271Q754 226 744.50 180.50Q735 135 718 93.50Q701 52 676.50 17.50Q652-17 619-40M718 283Q715 331 704.50 373.50Q694 416 672.50 448Q651 480 617.50 498.50Q584 517 535 517Q471 517 421.50 483.50Q372 450 338.50 396.50Q305 343 287.50 275.50Q270 208 270 140Q270 132 270.50 124.50Q271 117 272 109Q400 116 512 163.50Q624 211 718 283M1054 799Q1054 820 1046.50 834Q1039 848 1022 850Q998 850 982 828.50Q966 807 956.50 766.50Q947 726 943.50 668Q940 610 940 538L940 502Q994 583 1024 660.50Q1054 738 1054 799Z"  horiz-adv-x="1015" vert-adv-y="1000"  />

      
      <glyph glyph-name="uni54" unicode="&#x54;" d="M1049 826Q1030 795 982 778Q972 760 960 728.50Q948 697 935.50 647.50Q923 598 911 526.50Q899 455 889 356Q870 175 831 60Q792-55 741-120.50Q690-186 631-210.50Q572-235 512-235Q456-235 416-219.50Q376-204 350-179Q324-154 311.50-122Q299-90 299-57Q299-26 309 3.50Q319 33 337 55.50Q355 78 380.50 92Q406 106 436 106L439 51Q420 51 404 42Q388 33 376 17.50Q364 2 357.50-18.50Q351-39 351-61Q351-88 360.50-113.50Q370-139 390-159Q410-179 441-191Q472-203 515-203Q547-203 579-194Q611-185 641.50-162.50Q672-140 700.50-100Q729-60 753 2Q777 64 796.50 151Q816 238 829 356Q838 440 850.50 505Q863 570 876.50 620.50Q890 671 904.50 707Q919 743 933 769Q921 767 907.50 765.50Q894 764 879 764Q824 764 766.50 775Q709 786 647 798.50Q585 811 516.50 822Q448 833 370 833Q292 833 233.50 805.50Q175 778 136 734Q97 690 77.50 634.50Q58 579 58 524Q58 476 72.50 431Q87 386 116.50 351.50Q146 317 190.50 296Q235 275 295 275Q355 275 396 294.50Q437 314 462.50 346Q488 378 499.50 419Q511 460 511 504Q511 528 508 554L565 563Q568 536 568 511Q568 460 553 412Q538 364 505.50 327Q473 290 421.50 267.50Q370 245 296 245Q222 245 166.50 269Q111 293 74.50 332.50Q38 372 20 423.50Q2 475 2 530Q2 593 25.50 655.50Q49 718 96 768Q143 818 212 849Q281 880 373 880Q454 880 526.50 867.50Q599 855 663.50 839.50Q728 824 783.50 811.50Q839 799 886 799Q909 799 926 800.50Q943 802 955 804Q976 833 994.50 844Q1013 855 1025 858L1049 826Z"  horiz-adv-x="969" vert-adv-y="1000"  />

      
      <glyph glyph-name="uni55" unicode="&#x55;" d="M1137-35Q1123-141 1083-187Q1043-233 985-233Q919-233 889-184.50Q859-136 859-23Q859 22 865 75Q847 19 823.50-35.50Q800-90 772.50-134Q745-178 714-205Q683-232 650-232Q593-232 565.50-192.50Q538-153 538-80Q538-38 547.50 14.50Q557 67 571 125.50Q585 184 602 245Q619 306 633 364Q647 422 656.50 474.50Q666 527 666 568Q666 629 648 680.50Q630 732 596.50 769.50Q563 807 516 828.50Q469 850 411 850Q334 850 273 822Q212 794 169 746.50Q126 699 103 637Q80 575 80 508Q80 453 94 406.50Q108 360 136 326Q164 292 207 273Q250 254 307 254Q368 254 408 279.50Q448 305 473 344Q498 383 510.50 429.50Q523 476 528 518L584 509Q576 461 558 409.50Q540 358 507.50 315.50Q475 273 426.50 246Q378 219 309 219Q242 219 189 241.50Q136 264 99.50 303Q63 342 43.50 395Q24 448 24 510Q24 585 51.50 653Q79 721 130 772Q181 823 253.50 853Q326 883 415 883Q482 883 538.50 860.50Q595 838 635 796.50Q675 755 697.50 697Q720 639 720 568Q720 498 700.50 413Q681 328 658 240Q635 152 615.50 69Q596-14 596-80Q596-101 599-120.50Q602-140 609.50-155Q617-170 629.50-178.50Q642-187 662-187Q687-187 711-166Q735-145 757-110Q779-75 798.50-31Q818 13 834.50 59.50Q851 106 863.50 150.50Q876 195 884 230Q897 314 914.50 404Q932 494 951.50 580.50Q971 667 991.50 745.50Q1012 824 1031 886L1088 875Q1066 793 1042.50 719Q1019 645 1008 592Q999 558 988.50 509.50Q978 461 967 404.50Q956 348 946 287Q936 226 928 166.50Q920 107 915.50 54Q911 1 911-40Q911-115 930.50-156Q950-197 988-197Q1026-197 1052-156.50Q1078-116 1086-32L1137-35Z"  horiz-adv-x="1171" vert-adv-y="1000"  />

      
      <glyph glyph-name="uni56" unicode="&#x56;" d="M754-165Q785-10 825.50 128.50Q866 267 913.50 385Q961 503 1015.50 597.50Q1070 692 1128.50 758.50Q1187 825 1249 860.50Q1311 896 1374 896Q1426 896 1460.50 878.50Q1495 861 1513 833Q1503 823 1493 813.50Q1483 804 1473 793Q1459 821 1431 834Q1403 847 1362 847Q1305 847 1247.50 811Q1190 775 1135 708Q1080 641 1027.50 545Q975 449 927.50 328Q880 207 838 64Q796-79 762-240Q746-238 730.50-236Q715-234 699-232Q701-168 704.50-90Q708-12 708 72Q708 209 693.50 333.50Q679 458 641.50 552Q604 646 538 701.50Q472 757 370 757Q295 757 236.50 729.50Q178 702 138.50 656Q99 610 78 549.50Q57 489 57 423Q57 365 74 317Q91 269 122 234Q153 199 196 179.50Q239 160 292 160Q353 160 394 188.50Q435 217 459.50 258.50Q484 300 495 345.50Q506 391 508 425L564 416Q560 366 544 314.50Q528 263 496.50 221Q465 179 415.50 152Q366 125 294 125Q225 125 171 148Q117 171 79.50 211.50Q42 252 22 307Q2 362 2 425Q2 500 27 566Q52 632 100 682Q148 732 217.50 761Q287 790 375 790Q489 790 565 735Q641 680 686 586.50Q731 493 749.50 370Q768 247 768 111Q768 41 764-28.50Q760-98 754-165Z"  horiz-adv-x="1002" vert-adv-y="1000"  />

      
      <glyph glyph-name="uni57" unicode="&#x57;" d="M1076 793Q1064 700 1054 606Q1044 512 1037.50 423Q1031 334 1027 252Q1023 170 1023 101Q1023 45 1024.50-2Q1026-49 1029-84.50Q1032-120 1036.50-143Q1041-166 1047-173Q1091 48 1137.50 235Q1184 422 1240 564Q1271 642 1305 703.50Q1339 765 1378 808Q1417 851 1460.50 873.50Q1504 896 1554 896Q1602 896 1635.50 880Q1669 864 1693 833L1653 793Q1636 820 1606 833.50Q1576 847 1540 847Q1454 847 1386.50 767Q1319 687 1263 543Q1206 399 1157 201Q1108 3 1057-239L998-233Q980-199 972.50-131Q965-63 965 25Q965 86 968 151.50Q971 217 975.50 282.50Q980 348 985.50 411Q991 474 997 529Q1003 584 1008.50 628.50Q1014 673 1018 702Q997 652 974.50 584Q952 516 930 438.50Q908 361 886.50 277.50Q865 194 846 115Q832 59 820.50 7.50Q809-44 799-89.50Q789-135 781-172.50Q773-210 767-236L720-227Q710-203 704.50-169Q699-135 696-93.50Q693-52 692.50-5.50Q692 41 692 90L692 239Q690 315 685 386Q680 457 663 514Q647 568 621 613Q595 658 559.50 690Q524 722 478.50 739.50Q433 757 377 757Q306 757 250 731.50Q194 706 154 664Q114 622 90.50 568Q67 514 60.50 458.50Q54 403 64.50 349Q75 295 103.50 253Q132 211 178.50 185.50Q225 160 290 160Q350 160 390.50 180.50Q431 201 456.50 236.50Q482 272 495.50 320.50Q509 369 515 425L574 421Q564 357 543 303.50Q522 250 488.50 211Q455 172 406.50 150.50Q358 129 293 129Q217 129 162 157.50Q107 186 72.50 232.50Q38 279 23.50 338.50Q9 398 15 459.50Q21 521 47 580.50Q73 640 119 686.50Q165 733 230.50 761.50Q296 790 382 790Q445 790 497.50 772Q550 754 592 721Q634 688 665 641.50Q696 595 715 537Q727 501 734.50 455.50Q742 410 745.50 360.50Q749 311 750.50 258.50Q752 206 752 155L752 111Q752 90 751.50 69.50Q751 49 751 30Q751-38 752.50-90Q754-142 762-156Q770-115 786-41.50Q802 32 823 123Q843 209 867.50 304.50Q892 400 918.50 491.50Q945 583 973 664.50Q1001 746 1030 804L1076 793Z"  horiz-adv-x="1285" vert-adv-y="1000"  />

      
      <glyph glyph-name="uni58" unicode="&#x58;" d="M488 850Q453 850 427.50 839Q402 828 385 810.50Q368 793 360 770.50Q352 748 352 724Q352 700 360.50 676.50Q369 653 385 634.50Q401 616 425 604Q449 592 480 591Q476 575 473.50 559.50Q471 544 467 528Q426 528 394 543Q362 558 340.50 583Q319 608 308 639.50Q297 671 297 704Q297 743 313 776.50Q329 810 356 834Q383 858 419.50 871.50Q456 885 497 885Q563 885 609.50 844.50Q656 804 688 736.50Q720 669 741.50 582Q763 495 779 403Q812 499 849.50 587.50Q887 676 933.50 744.50Q980 813 1037.50 854Q1095 895 1168 895Q1197 895 1222 887Q1247 879 1266 866.50Q1285 854 1298 837.50Q1311 821 1317 804Q1305 798 1293.50 791.50Q1282 785 1271 779Q1258 816 1227 832.50Q1196 849 1154 849Q1087 849 1035 807.50Q983 766 940 697Q897 628 860.50 539Q824 450 788 355L797 290Q807 216 818 144.50Q829 73 844.50 9Q860-55 880.50-110Q901-165 930-205Q959-245 998-267.50Q1037-290 1088-290Q1142-290 1170.50-264.50Q1199-239 1213-191L1269-209Q1243-272 1197.50-299Q1152-326 1086-326Q1022-326 974.50-303Q927-280 892-240Q857-200 833.50-145Q810-90 793-26Q776 38 764.50 108.50Q753 179 743 250Q707 161 665 75Q623-11 569.50-78Q516-145 448-186Q380-227 291-227Q222-227 171-201.50Q120-176 86.50-134.50Q53-93 36.50-39.50Q20 14 20 71Q20 134 39 196.50Q58 259 96.50 309.50Q135 360 192 391Q249 422 326 422Q372 422 408 405Q444 388 469 359Q494 330 506.50 292Q519 254 519 212Q519 167 503 122.50Q487 78 455 40L406 69Q438 107 452.50 148.50Q467 190 467 229Q467 260 456.50 288.50Q446 317 427.50 339.50Q409 362 382 375.50Q355 389 322 389Q263 389 216.50 361Q170 333 138 287.50Q106 242 89.50 185Q73 128 73 70Q73 20 86-26Q99-72 126.50-108Q154-144 195.50-165.50Q237-187 294-187Q379-187 445-146Q511-105 563-36.50Q615 32 656.50 120Q698 208 734 301L731 323Q714 440 695 537Q676 634 648.50 703.50Q621 773 582.50 811.50Q544 850 488 850Z"  horiz-adv-x="966" vert-adv-y="1000"  />

      
      <glyph glyph-name="uni59" unicode="&#x59;" d="M381 850Q310 850 254 824.50Q198 799 158 757Q118 715 94.50 661Q71 607 64.50 551.50Q58 496 68.50 442Q79 388 107.50 346Q136 304 182.50 278.50Q229 253 294 253Q354 253 394.50 273.50Q435 294 461 329.50Q487 365 500 413.50Q513 462 519 518L578 514Q568 450 547.50 396.50Q527 343 493 304Q459 265 410.50 243.50Q362 222 297 222Q221 222 166 250.50Q111 279 76.50 325.50Q42 372 27.50 431.50Q13 491 19 552.50Q25 614 51 673.50Q77 733 123 779.50Q169 826 234.50 854.50Q300 883 386 883Q453 883 509 860.50Q565 838 605.50 796.50Q646 755 668 697Q690 639 690 568Q690 510 681 456Q672 402 661 350Q650 298 641 247Q632 196 632 144Q632 123 635 103.50Q638 84 645.50 69Q653 54 666 45.50Q679 37 698 37Q731 37 761 70.50Q791 104 816.50 156Q842 208 861.50 270.50Q881 333 894 392Q908 480 922.50 558.50Q937 637 951.50 701Q966 765 980.50 812Q995 859 1010 884Q1023 880 1036 877Q1049 874 1062 871Q1055 834 1045 798.50Q1035 763 1024.50 730.50Q1014 698 1005 671Q996 644 991 625Q974 544 959 447.50Q944 351 928 244Q919 184 908 116.50Q897 49 881-17Q865-83 843-143.50Q821-204 791.50-250Q762-296 723-323.50Q684-351 634-351Q582-351 552-320.50Q522-290 522-240Q522-213 532-188.50Q542-164 560-145.50Q578-127 602.50-116Q627-105 656-104L658-154Q616-157 590-184Q564-211 564-248Q564-284 583.50-302.50Q603-321 634-321Q672-321 702-293.50Q732-266 754.50-221Q777-176 794-119Q811-62 824-2Q837 58 847 115.50Q857 173 866 218Q849 174 829 133.50Q809 93 786.50 61.50Q764 30 738.50 11.50Q713-7 686-7Q629-7 601.50 32Q574 71 574 144Q574 197 584 249Q594 301 605.50 353Q617 405 627 458Q637 511 637 568Q637 629 618.50 680.50Q600 732 566.50 769.50Q533 807 486 828.50Q439 850 381 850Z"  horiz-adv-x="1016" vert-adv-y="1000"  />

      
      <glyph glyph-name="uni5a" unicode="&#x5a;" d="M366 855Q297 855 245 822.50Q193 790 158 739.50Q123 689 105 627.50Q87 566 87 507Q87 465 96 427.50Q105 390 122.50 362.50Q140 335 166.50 319Q193 303 228 303Q259 303 283.50 317Q308 331 324 354.50Q340 378 348.50 407Q357 436 357 466Q357 505 338.50 540Q320 575 282 592L318 644Q361 624 382.50 577.50Q404 531 404 477Q404 440 393 403.50Q382 367 360.50 338Q339 309 306 291Q273 273 228 273Q179 273 142 293Q105 313 80.50 347Q56 381 43.50 426Q31 471 31 521Q31 584 52 649Q73 714 115 766.50Q157 819 219.50 852Q282 885 366 885Q436 885 489.50 862Q543 839 578.50 799.50Q614 760 632 707.50Q650 655 650 595Q650 533 630 466.50Q610 400 570.50 337Q531 274 470.50 217.50Q410 161 329 118Q362 105 386 84Q410 63 425.50 37Q441 11 448-19.50Q455-50 455-81Q455-130 439-178Q423-226 395-264.50Q367-303 328.50-327Q290-351 245-351Q215-351 193-340.50Q171-330 156-312.50Q141-295 133.50-272Q126-249 126-223Q126-198 133-171Q140-144 154.50-119Q169-94 190-72.50Q211-51 239-35L268-84Q215-116 191.50-157Q168-198 168-236Q168-272 188.50-296.50Q209-321 245-321Q280-321 309-299.50Q338-278 358.50-244Q379-210 390.50-167Q402-124 402-80Q402-50 396-21Q390 8 377 32Q364 56 344 74Q324 92 296 101Q274 93 255.50 85Q237 77 214 77Q204 77 199 78L210 141L214 141Q254 141 289 132Q365 170 421.50 224.50Q478 279 515.50 340.50Q553 402 571.50 467.50Q590 533 590 594Q590 648 575.50 695.50Q561 743 533 778.50Q505 814 463 834.50Q421 855 366 855Z"  horiz-adv-x="616" vert-adv-y="1000"  />

      
      <glyph glyph-name="uni5b" unicode="&#x5b;" d="M139 777Q176 768 218 768Q241 768 262.50 771Q284 774 303 782L311 744Q298 736 280 733Q262 730 242 730Q220 730 199.50 732.50Q179 735 165 738Q159 693 150 634.50Q141 576 131 515Q121 454 111 395.50Q101 337 93 292Q84 242 74.50 187.50Q65 133 56.50 84.50Q48 36 41-2Q34-40 31-55Q43-53 58.50-51Q74-49 91-49Q133-49 168-62Q165-72 162-82Q159-92 155-102Q138-95 117.50-92Q97-89 75-89Q53-89 31.50-91.50Q10-94-10-98Q3-39 18.50 45.50Q34 130 50 223Q66 316 81 409.50Q96 503 108.50 580.50Q121 658 129 711.50Q137 765 139 777Z"  horiz-adv-x="183" vert-adv-y="1000"  />

      
      <glyph glyph-name="uni5c" unicode="&#x5c;" d="M77-15Q69 47 63.50 122Q58 197 54 274.50Q50 352 47.50 426.50Q45 501 43.50 562.50Q42 624 42 666Q42 708 43 720L77 720Q75 542 84 360Q93 178 109-12L77-15Z"  horiz-adv-x="145" vert-adv-y="1000"  />

      
      <glyph glyph-name="uni5d" unicode="&#x5d;" d="M20-98Q2-93-18-90.50Q-38-88-58-88Q-104-88-144-102L-152-65Q-139-57-121-53.50Q-103-50-83-50Q-61-50-40-52.50Q-19-55-5-59Q0-14 9 44.50Q18 103 28 164Q38 225 48 283.50Q58 342 66 387Q75 436 84.50 491Q94 546 102.50 595Q111 644 118 681.50Q125 719 128 735Q116 732 100.50 730Q85 728 68 728Q26 728-9 741Q-5 752-2 761.50Q1 771 4 782Q21 774 41.50 771Q62 768 84 768Q106 768 127.50 770.50Q149 773 169 778Q156 719 140.50 634Q125 549 109 456Q93 363 77.50 269Q62 175 50 97.50Q38 20 29.50-33Q21-86 20-98Z"  horiz-adv-x="181" vert-adv-y="1000"  />

      
      <glyph glyph-name="uni5e" unicode="&#x5e;" d="M144 600Q171 556 186.50 524Q202 492 205 484Q196 479 186.50 475.50Q177 472 167 467Q165 473 155 499.50Q145 526 122 567Q113 556 101.50 543Q90 530 78 517Q66 504 54.50 492.50Q43 481 34 474Q28 481 22 487.50Q16 494 11 501Q50 530 77 557.50Q104 585 117 602L144 600Z"  horiz-adv-x="213" vert-adv-y="1000"  />

      
      <glyph glyph-name="uni5f" unicode="&#x5f;" d="M173-24L168-56L-11-56L-5-24L173-24Z"  horiz-adv-x="163" vert-adv-y="1000"  />

      
      <glyph glyph-name="uni60" unicode="&#x60;" d="M69 626Q93 579 116 549Q139 519 152 505L131 485Q116 496 99 513Q85 527 67 549Q49 571 31 601L69 626Z"  horiz-adv-x="174" vert-adv-y="1000"  />

      
      <glyph glyph-name="uni61" unicode="&#x61;" d="M222 455L267 455Q248 362 232.50 278Q217 194 208 123Q206 108 205 95.50Q204 83 204 73Q204 37 216 37Q233 37 263.50 88.50Q294 140 332 241Q337 241 343.50 237Q350 233 350 231Q324 168 303.50 123Q283 78 265.50 49.50Q248 21 233 8Q218-5 202-5Q161-5 161 98L166 146Q155 116 142.50 88.50Q130 61 115 40.50Q100 20 82.50 7.50Q65-5 45-5Q13-5-2 26Q-17 57-17 111Q-17 146-11 185.50Q-5 225 5.50 264Q16 303 31 339Q46 375 64 402Q82 429 102.50 445.50Q123 462 146 462Q176 462 190 440.50Q204 419 208 385L222 455M148 422Q127 422 106.50 389Q86 356 69.50 308Q53 260 43 206.50Q33 153 33 111Q33 79 40 59.50Q47 40 63 40Q76 40 91 55.50Q106 71 119.50 96.50Q133 122 145.50 154Q158 186 167.50 219.50Q177 253 182.50 285Q188 317 188 342Q188 378 178 400Q168 422 148 422Z"  horiz-adv-x="332" vert-adv-y="1000"  />

      
      <glyph glyph-name="uni62" unicode="&#x62;" d="M322 241Q326 241 333 238.50Q340 236 340 232L340 231Q320 180 288.50 147Q257 114 219 105Q197 56 166 24.50Q135-7 95-7Q68-7 50 8Q32 23 20.50 50Q9 77 4 114Q-1 151-1 194Q-1 263 10 342.50Q21 422 37.50 498Q54 574 74.50 640Q95 706 114 748Q125 771 140.50 782Q156 793 173 793Q193 793 208.50 777.50Q224 762 224 733Q224 606 79 455L70 408Q87 432 110 446.50Q133 461 162 461Q187 461 205.50 447.50Q224 434 236 411.50Q248 389 253.50 359Q259 329 259 295Q259 256 252 214.50Q245 173 231 135Q258 144 281 169Q304 194 322 241M140 431Q121 431 105.50 418.50Q90 406 78.50 385Q67 364 61 337.50Q55 311 55 283Q55 255 62 228Q69 201 84 179.50Q99 158 123.50 144Q148 130 183 129Q194 165 200.50 206Q207 247 207 285Q207 315 203 341.50Q199 368 191 388Q183 408 170.50 419.50Q158 431 140 431M95 22Q119 22 139 44.50Q159 67 173 103Q122 108 91 136Q60 164 46 204Q45 191 44.50 179Q44 167 44 156Q44 96 56 59Q68 22 95 22M190 733Q190 756 178 756Q170 756 159 735Q148 714 135.50 678.50Q123 643 110.50 595.50Q98 548 87 495Q131 549 160.50 609.50Q190 670 190 733Z"  horiz-adv-x="322" vert-adv-y="1000"  />

      
      <glyph glyph-name="uni63" unicode="&#x63;" d="M143 253Q162 284 171.50 316Q181 348 181 373Q181 397 173 412Q165 427 149 427Q128 427 108.50 402.50Q89 378 74.50 340.50Q60 303 51 257Q42 211 42 169Q42 142 46 119Q50 96 58.50 78.50Q67 61 81 50.50Q95 40 115 40Q159 42 194 91.50Q229 141 268 241Q272 241 280 237Q288 233 288 231L278 208Q260 164 240.50 125Q221 86 198.50 56.50Q176 27 149.50 10Q123-7 90-7Q64-7 45.50 6Q27 19 15.50 41Q4 63-1.50 92.50Q-7 122-7 156Q-7 207 5 261Q17 315 38 359.50Q59 404 88 433Q117 462 152 462Q187 462 203.50 434Q220 406 220 365Q220 333 210.50 297.50Q201 262 184 230L143 253Z"  horiz-adv-x="268" vert-adv-y="1000"  />

      
      <glyph glyph-name="uni64" unicode="&#x64;" d="M208 393Q216 441 225.50 494.50Q235 548 245 600.50Q255 653 264 701Q273 749 280 787L327 787Q322 750 312 690Q302 630 289.50 561Q277 492 263.50 419Q250 346 238.50 282Q227 218 220 170Q213 122 213 102Q213 74 217.50 63.50Q222 53 230 53Q252 53 279 104Q306 155 338 241Q343 241 350 236Q357 231 357 230Q312 109 274 52Q236-5 204-5Q159-5 159 84Q159 94 161 111.50Q163 129 166 152Q155 119 142 90Q129 61 114 39.50Q99 18 81.50 5.50Q64-7 43-7Q11-7-3 26.50Q-17 60-17 111Q-17 146-11 185.50Q-5 225 5 264Q15 303 30 339Q45 375 63 402Q81 429 101.50 445.50Q122 462 145 462Q173 462 188 443.50Q203 425 208 393M147 422Q126 422 105.50 389Q85 356 68.50 308Q52 260 42 206Q32 152 32 111Q32 79 39 59.50Q46 40 62 40Q80 40 102 72.50Q124 105 143 151.50Q162 198 175 250Q188 302 188 341Q188 374 178.50 398Q169 422 147 422Z"  horiz-adv-x="338" vert-adv-y="1000"  />

      
      <glyph glyph-name="uni65" unicode="&#x65;" d="M112 40Q136 40 158 58.50Q180 77 199.50 106Q219 135 235.50 170.50Q252 206 265 241Q269 241 276 237Q283 233 283 231Q271 196 253.50 154.50Q236 113 213 77Q190 41 161.50 17Q133-7 99-7Q70-7 49.50 6Q29 19 16.50 41Q4 63-2 93Q-8 123-8 156Q-8 207 4.50 261.50Q17 316 39 360.50Q61 405 91.50 434Q122 463 158 463Q187 463 201 445.50Q215 428 215 401Q215 371 199.50 341Q184 311 160 285.50Q136 260 106 241.50Q76 223 48 218Q46 203 44.50 188.50Q43 174 43 160Q43 135 46.50 113Q50 91 58.50 75Q67 59 80 49.50Q93 40 112 40M153 436Q137 436 121.50 419Q106 402 92.50 375Q79 348 68 313.50Q57 279 51 244Q82 259 105 278.50Q128 298 143 319Q158 340 165.50 361Q173 382 173 400Q173 436 153 436Z"  horiz-adv-x="265" vert-adv-y="1000"  />

      
      <glyph glyph-name="uni66" unicode="&#x66;" d="M31-232Q17-232 4-227Q-9-222-19-209Q-29-196-35-172.50Q-41-149-41-112Q-41-58-33.50 16Q-26 90-13 172.50Q0 255 16 339.50Q32 424 49 499.50Q66 575 82.50 635.50Q99 696 113 730Q126 762 144 777Q162 792 179 792Q198 792 211 777Q224 762 224 733Q224 694 213.50 646Q203 598 187 547Q171 496 150.50 446Q130 396 110.50 352.50Q91 309 73.50 275Q56 241 46 223Q31 143 22 68Q42 72 65 84.50Q88 97 110 118.50Q132 140 152 170.50Q172 201 187 241Q191 241 198 236.50Q205 232 205 230Q171 155 130.50 108Q90 61 42 44Q80 14 96-26Q112-66 112-104Q112-130 106-153Q100-176 89-193.50Q78-211 63-221.50Q48-232 31-232M196 732Q196 755 185 755Q175 755 160.50 718Q146 681 129.50 618.50Q113 556 95.50 474Q78 392 61 302Q72 325 86 358Q100 391 115 430Q130 469 144.50 510.50Q159 552 170.50 592Q182 632 189 668Q196 704 196 732M33-202Q52-202 65.50-175.50Q79-149 79-111Q79-76 65-38.50Q51-1 16 27Q11-15 7.50-53Q4-91 4-120Q4-158 11-180Q18-202 33-202Z"  horiz-adv-x="187" vert-adv-y="1000"  />

      
      <glyph glyph-name="uni67" unicode="&#x67;" d="M320 241Q325 241 332 238Q339 235 338 230Q306 148 264 91.50Q222 35 180-10Q171-58 163-110Q155-162 142-205Q129-248 109.50-276Q90-304 59-304Q33-304 16-285.50Q-1-267-1-233Q-1-204 9.50-178Q20-152 38-127.50Q56-103 79.50-78.50Q103-54 129-28Q137 10 143 50Q149 90 156 128Q145 100 133 76Q121 52 107 34Q93 16 77 6Q61-4 43-4Q11-4-3 27.50Q-17 59-17 111Q-17 146-11 185.50Q-5 225 5.50 264Q16 303 31 339Q46 375 64 402Q82 429 103 445.50Q124 462 146 462Q172 462 185 445Q198 428 203 400L215 456L267 456Q262 439 253.50 395.50Q245 352 234 292.50Q223 233 211 165Q199 97 187 32Q224 74 259 123Q294 172 320 241M148 422Q127 422 106.50 389Q86 356 69.50 308Q53 260 43 206.50Q33 153 33 111Q33 79 40 59.50Q47 40 63 40Q79 40 96 60.50Q113 81 128.50 115Q144 149 158 191.50Q172 234 182 278Q184 294 186.50 309.50Q189 325 189 341Q189 374 179.50 398Q170 422 148 422M33-233Q33-253 40.50-262.50Q48-272 59-272Q73-272 82-257Q91-242 96-216L122-70Q85-108 59-147Q33-186 33-233Z"  horiz-adv-x="320" vert-adv-y="1000"  />

      
      <glyph glyph-name="uni68" unicode="&#x68;" d="M-37 0Q-37 1-37.50 2Q-38 3-38 5Q-38 19-34 48Q-30 77-24 104Q-15 155-5.50 214Q4 273 14.50 334.50Q25 396 36.50 456.50Q48 517 60 570.50Q72 624 84.50 668Q97 712 110 740Q123 768 142.50 778.50Q162 789 179 789Q220 789 220 741Q220 703 205.50 654Q191 605 169.50 551Q148 497 121.50 442.50Q95 388 71 339L56 275Q70 308 87.50 340.50Q105 373 124.50 399.50Q144 426 164.50 442.50Q185 459 205 459Q225 459 239 443.50Q253 428 253 396Q253 364 242 322.50Q231 281 218 237.50Q205 194 194 152.50Q183 111 183 80Q183 58 189.50 48Q196 38 207 38Q218 38 232 53.50Q246 69 261 96.50Q276 124 292 161Q308 198 325 241Q330 241 336.50 236.50Q343 232 343 230L330 196Q315 158 298.50 122Q282 86 264 58Q246 30 226.50 12.50Q207-5 186-5Q161-5 145 14Q129 33 129 71Q129 106 140 150.50Q151 195 164.50 239Q178 283 189 322Q200 361 200 385Q200 403 195 410.50Q190 418 182 418Q168 418 148.50 394.50Q129 371 107 330Q85 289 64.50 233.50Q44 178 29 113Q25 85 21.50 57Q18 29 13 0L-37 0M189 732Q189 755 176 755Q164 755 151.50 724Q139 693 126.50 642.50Q114 592 101.50 527.50Q89 463 77 396Q89 424 107.50 469Q126 514 143 563Q160 612 173.50 657.50Q187 703 189 732Z"  horiz-adv-x="325" vert-adv-y="1000"  />

      
      <glyph glyph-name="uni69" unicode="&#x69;" d="M96 456Q84 399 72.50 344.50Q61 290 52.50 241Q44 192 38.50 151Q33 110 33 79Q33 56 38 47Q43 38 51 38Q74 38 102.50 90Q131 142 168 241Q172 241 179 238Q186 235 186 231Q166 179 149 136Q132 93 115 61.50Q98 30 78.50 12.50Q59-5 35-5Q8-5-4 24Q-16 53-16 99Q-16 136-9.50 182.50Q-3 229 6 277Q15 325 25 371.50Q35 418 43 456L96 456M87 529Q71 529 64 538.50Q57 548 57 561Q57 578 67.50 594Q78 610 98 610Q114 610 121 600Q128 590 128 576Q128 559 117 544Q106 529 87 529Z"  horiz-adv-x="168" vert-adv-y="1000"  />

      
      <glyph glyph-name="uni6a" unicode="&#x6a;" d="M175 241Q178 241 186 238.50Q194 236 193 230Q161 148 119.50 91Q78 34 36-11L17-118Q11-153 3-186Q-5-219-17-245.50Q-29-272-45.50-288Q-62-304-85-304Q-111-304-128-285.50Q-145-267-145-233Q-145-204-134-178.50Q-123-153-105-128Q-87-103-63.50-78.50Q-40-54-14-28Q0 50 13 132Q26 214 39 286L18 230Q16 230 8 232Q0 234 0 241L7 259Q32 322 45.50 368.50Q59 415 71 456L122 456Q117 439 108.50 395Q100 351 89.50 292Q79 233 67 164.50Q55 96 43 31Q80 73 114.50 122.50Q149 172 175 241M-111-233Q-111-253-103.50-262.50Q-96-272-85-272Q-71-272-61.50-253.50Q-52-235-45-205.50Q-38-176-32.50-140Q-27-104-21-69Q-39-89-55.50-108Q-72-127-84-147Q-96-167-103.50-188Q-111-209-111-233M111 522Q95 522 88 531.50Q81 541 81 554Q81 571 91.50 587Q102 603 122 603Q138 603 145 593Q152 583 152 569Q152 552 141 537Q130 522 111 522Z"  horiz-adv-x="175" vert-adv-y="1000"  />

      
      <glyph glyph-name="uni6b" unicode="&#x6b;" d="M-39 0L-35 37Q-34 58-30.50 80Q-27 102-23 121Q-19 140-15.50 155Q-12 170-10 179Q2 257 16 342Q30 427 45 504.50Q60 582 77 645.50Q94 709 112 745Q123 771 142 780Q161 789 176 789Q219 789 219 741Q219 713 206.50 671Q194 629 173 578Q152 527 125 468.50Q98 410 69 348L56 287Q72 324 88 356.50Q104 389 121.50 412Q139 435 156.50 448.50Q174 462 193 462Q216 462 226 448.50Q236 435 236 413Q236 389 224 356.50Q212 324 192.50 292Q173 260 148 232.50Q123 205 96 191Q108 174 115 148.50Q122 123 128 99Q134 75 140.50 58Q147 41 158 41Q169 41 183.50 56Q198 71 214 98Q230 125 247 161.50Q264 198 281 241Q286 241 292.50 236Q299 231 299 230Q295 217 288 201Q273 162 256 125Q239 88 221.50 59Q204 30 185 12.50Q166-5 146-5Q121-5 107 16.50Q93 38 85 67.50Q77 97 71.50 128Q66 159 58 178Q55 178 52 177.50Q49 177 46 177Q44 177 42 177.50Q40 178 38 178L12 0L-39 0M176 421Q154 421 123 375.50Q92 330 52 243L47 217Q63 217 73 211Q93 223 113.50 247.50Q134 272 151 300Q168 328 179 355.50Q190 383 190 400Q190 420 176 421M185 732Q185 755 175 755Q163 755 151 727.50Q139 700 127 653.50Q115 607 103 545.50Q91 484 79 416Q90 443 107.50 484.50Q125 526 141.50 571Q158 616 170.50 659Q183 702 185 732Z"  horiz-adv-x="281" vert-adv-y="1000"  />

      
      <glyph glyph-name="uni6c" unicode="&#x6c;" d="M70 37Q96 37 125.50 90.50Q155 144 192 241Q196 241 202.50 238Q209 235 209 231Q164 109 129 51Q94-7 53-7Q18-7 6 36Q-6 79-6 154Q-4 208 3.50 274.50Q11 341 25 416Q57 597 99 695Q141 793 179 793Q202 793 210 772Q218 751 218 720Q218 666 203 604Q188 542 164 480Q140 418 110 360Q80 302 50 257Q45 218 42.50 183.50Q40 149 40 121Q40 77 48 57Q56 37 70 37M193 723Q193 734 191.50 744.50Q190 755 181 755Q169 755 152.50 713.50Q136 672 118.50 607Q101 542 85 463Q69 384 58 308Q73 336 96 384.50Q119 433 140.50 490.50Q162 548 177.50 608.50Q193 669 193 723Z"  horiz-adv-x="192" vert-adv-y="1000"  />

      
      <glyph glyph-name="uni6d" unicode="&#x6d;" d="M-51 0Q-51 0-49 13.50Q-47 27-42.50 49Q-38 71-32 99Q-26 127-17 157Q-10 197-2 238.50Q6 280 12.50 319Q19 358 25 393Q31 428 36 456L89 456Q87 442 81.50 410Q76 378 68 338Q80 365 92 388Q104 411 117 428Q130 445 145 454.50Q160 464 179 464Q202 464 212.50 445Q223 426 223 398Q223 374 215 328Q239 385 267.50 422.50Q296 460 338 460Q358 460 373.50 444.50Q389 429 389 396Q389 364 378 321.50Q367 279 354 234Q341 189 330 146.50Q319 104 319 73Q319 53 325.50 45.50Q332 38 343 38Q356 38 369.50 53.50Q383 69 398 96.50Q413 124 428.50 161Q444 198 461 241Q466 241 472.50 236.50Q479 232 479 230L468 201Q453 162 437 125Q421 88 403 59Q385 30 364.50 12.50Q344-5 322-5Q294-5 280 15Q266 35 266 72Q266 111 277 155.50Q288 200 301 243.50Q314 287 325 324Q336 361 336 385Q336 423 313 423Q288 423 255 367Q222 311 197 205Q186 142 174 85.50Q162 29 155 0L98 0Q104 27 111.50 63.50Q119 100 127 138.50Q135 177 143 216Q151 255 157 288.50Q163 322 166.50 346.50Q170 371 170 382Q170 396 166.50 407.50Q163 419 152 419Q140 419 125.50 402Q111 385 96.50 355Q82 325 67.50 284.50Q53 244 41 196L3 0L-51 0Z"  horiz-adv-x="461" vert-adv-y="1000"  />

      
      <glyph glyph-name="uni6e" unicode="&#x6e;" d="M-50 0Q-49 5-47 20Q-45 35-40.50 56Q-36 77-30 102Q-24 127-16 153Q-9 193-1.50 235Q6 277 12.50 317Q19 357 24.50 392.50Q30 428 33 456L87 456L63 317Q76 345 90.50 371Q105 397 120.50 416.50Q136 436 154.50 448Q173 460 196 460Q220 460 233.50 443.50Q247 427 247 396Q247 364 236 321.50Q225 279 212 234.50Q199 190 188 148Q177 106 177 75Q177 55 183.50 46.50Q190 38 201 38Q213 38 227 53.50Q241 69 256 96.50Q271 124 286.50 161Q302 198 319 241Q324 241 330.50 237Q337 233 337 231L326 202Q311 163 295 126Q279 89 261 59.50Q243 30 222.50 12.50Q202-5 180-5Q155-5 139 13Q123 31 123 66Q123 101 134 146Q145 191 158.50 236Q172 281 183 321Q194 361 194 385Q194 422 171 422Q159 422 142 405.50Q125 389 107.50 359Q90 329 72.50 288Q55 247 41 198L4 0L-50 0Z"  horiz-adv-x="319" vert-adv-y="1000"  />

      
      <glyph glyph-name="uni6f" unicode="&#x6f;" d="M319 241Q323 241 331 238.50Q339 236 337 231Q318 181 291 150.50Q264 120 227 109Q203 60 167 26.50Q131-7 92-7Q49-7 25.50 21.50Q2 50-5.50 97.50Q-13 145-5.50 205.50Q2 266 20 330L51 322Q56 350 67 375Q78 400 94 419Q110 438 131.50 449.50Q153 461 179 461Q219 461 240.50 430Q262 399 268.50 351.50Q275 304 266.50 247Q258 190 238 138Q263 150 282.50 173Q302 196 319 241M177 435Q149 435 127.50 412.50Q106 390 93.50 356Q81 322 78.50 283Q76 244 86 210Q96 176 119 153.50Q142 131 182 131Q201 180 212 233.50Q223 287 223.50 332Q224 377 212.50 406Q201 435 177 435M92 22Q116 22 136.50 45Q157 68 171 103Q139 106 116 120Q93 134 78 156.50Q63 179 56 207Q49 235 48 265Q42 233 37 191.50Q32 150 34.50 112Q37 74 49.50 48Q62 22 92 22Z"  horiz-adv-x="319" vert-adv-y="1000"  />

      
      <glyph glyph-name="uni70" unicode="&#x70;" d="M78 456L62 349Q83 400 109.50 431.50Q136 463 165 463Q203 463 220.50 426Q238 389 238 333Q238 294 230 249Q222 204 208 161.50Q194 119 174 82.50Q154 46 130 23Q190 39 239.50 96.50Q289 154 322 241Q326 241 333 236.50Q340 232 340 230L328 200Q309 153 283 115Q257 77 226 50Q195 23 160.50 8Q126-7 92-7Q57-7 38.50 9Q20 25 13 55Q-1-34-16.50-122Q-32-210-46-299L-93-299Q-87-245-79.50-202.50Q-72-160-66-131Q-59-97-51-72Q-39-1-26 80Q-13 161-1 235.50Q11 310 19.50 369.50Q28 429 30 456L78 456M42 233Q37 207 31 177.50Q25 148 25 122Q25 107 27 92Q29 77 33.50 65.50Q38 54 46 47Q54 40 67 40Q91 40 112.50 71Q134 102 150 148Q166 194 175.50 245.50Q185 297 185 339Q185 374 175.50 398Q166 422 149 422Q135 422 121 408Q107 394 92.50 369Q78 344 65 309Q52 274 42 233Z"  horiz-adv-x="322" vert-adv-y="1000"  />

      
      <glyph glyph-name="uni71" unicode="&#x71;" d="M272 456Q262 409 250.50 356.50Q239 304 227 249Q215 194 203.50 139Q192 84 182 33Q209 52 231 73.50Q253 95 271.50 120Q290 145 305 174.50Q320 204 334 241Q338 241 345 236.50Q352 232 352 230L340 203Q314 143 277 94.50Q240 46 182 11Q218-19 234-64.50Q250-110 250-158Q250-224 227.50-263.50Q205-303 172-303Q134-303 120.50-270.50Q107-238 107-163Q107-112 119-44.50Q131 23 145 99Q125 51 100 22Q75-7 43-7Q11-7-3 26.50Q-17 60-17 111Q-17 146-11 185.50Q-5 225 5.50 264Q16 303 31 339Q46 375 64 402Q82 429 103 445.50Q124 462 146 462Q173 462 187 442Q201 422 205 390Q208 407 212 423Q216 439 219 456L272 456M148 422Q127 422 106.50 389Q86 356 69.50 308Q53 260 43 206.50Q33 153 33 111Q33 79 40 59.50Q47 40 63 40Q78 40 100 70Q122 100 141.50 145Q161 190 175 242.50Q189 295 189 341Q189 374 179.50 398Q170 422 148 422M175-273Q195-273 206-242Q217-211 217-162Q217-122 206.50-81.50Q196-41 173-14Q162-71 156-114.50Q150-158 150-200Q150-273 175-273Z"  horiz-adv-x="334" vert-adv-y="1000"  />

      
      <glyph glyph-name="uni72" unicode="&#x72;" d="M100 67Q100 39 120 39Q141 39 169.50 91Q198 143 236 241Q239 241 246.50 238Q254 235 254 231Q234 179 217 136Q200 93 182.50 61.50Q165 30 146 12.50Q127-5 103-5Q75-5 62.50 12.50Q50 30 50 61Q50 86 57.50 112.50Q65 139 73.50 165Q82 191 89.50 216Q97 241 97 265Q97 301 85 326.50Q73 352 62 377Q52 338 40.50 300Q29 262 18 231Q13 231 9 233Q0 237 0 241Q14 280 25.50 325.50Q37 371 45 416Q35 437 35 477Q35 504 40 534Q45 564 53 595L100 582Q99 542 94 508.50Q89 475 82 442L76 422Q85 407 97.50 391.50Q110 376 121 358.50Q132 341 139.50 320Q147 299 147 274Q147 246 139.50 217.50Q132 189 123.50 162Q115 135 107.50 110.50Q100 86 100 67Z"  horiz-adv-x="236" vert-adv-y="1000"  />

      
      <glyph glyph-name="uni74" unicode="&#x74;" d="M32 456Q47 532 60.50 578Q74 624 86.50 648.50Q99 673 112 680.50Q125 688 139 688Q160 688 169 670.50Q178 653 178 622Q178 593 167 550Q156 507 137 456L173 456L167 424L125 424Q109 383 89.50 341Q70 299 50 257Q45 218 42.50 183.50Q40 149 40 121Q40 77 48 57Q56 37 70 37Q96 37 125.50 90.50Q155 144 192 241Q196 241 202.50 238Q209 235 209 231L209 229Q164 109 129 51Q94-7 53-7Q18-7 6 36Q-6 79-6 154Q-4 208 3.50 274.50Q11 341 25 416Q25 418 25.50 420Q26 422 26 424L-12 424L-6 456L32 456M153 625Q153 636 150.50 643Q148 650 139 650Q125 650 111 599Q97 548 81 456L113 456Q130 504 141.50 547.50Q153 591 153 625M101 424L76 424L61 324L101 424Z"  horiz-adv-x="192" vert-adv-y="1000"  />

      
      <glyph glyph-name="uni75" unicode="&#x75;" d="M96 456Q94 444 88 418Q82 392 75 358.50Q68 325 60 287Q52 249 45.50 211.50Q39 174 35 140Q31 106 31 82Q31 58 37 47.50Q43 37 53 37Q62 37 76.50 54Q91 71 105.50 99.50Q120 128 133.50 166.50Q147 205 155 248Q165 305 176.50 358Q188 411 198 456L250 456Q238 399 227 344.50Q216 290 207 241Q198 192 192.50 151Q187 110 187 79Q187 56 192.50 47Q198 38 206 38Q229 38 257 90.50Q285 143 323 241Q326 241 333.50 238Q341 235 341 231Q321 179 304 136Q287 93 269.50 61.50Q252 30 233 12.50Q214-5 190-5Q162-5 151.50 23.50Q141 52 141 100Q141 105 141.50 110Q142 115 142 120Q121 65 93 30Q65-5 36-5Q7-5-5 23Q-17 51-17 98Q-17 143-9 198.50Q-1 254 9.50 305.50Q20 357 30 398Q40 439 43 456L96 456Z"  horiz-adv-x="323" vert-adv-y="1000"  />

      
      <glyph glyph-name="uni76" unicode="&#x76;" d="M47 0Q43 54 38 123.50Q33 193 31 268L18 231Q13 231 9 233Q0 237 0 241Q8 264 15.50 290Q23 316 29 342Q29 402 32 456L74 456Q76 430 73 406.50Q70 383 61 355Q64 295 68.50 218.50Q73 142 79 55Q117 110 146 178Q135 204 129.50 239Q124 274 124 311Q124 349 130.50 387Q137 425 148.50 455.50Q160 486 177 505Q194 524 215 524Q240 524 252.50 501Q265 478 265 436Q265 404 258.50 370Q252 336 241 300.50Q230 265 215.50 230Q201 195 185 162Q200 144 220 144Q249 144 269.50 170Q290 196 307 241Q311 241 318 238Q325 235 325 231Q307 174 278 149Q249 124 217 124Q192 124 174 143Q151 94 126.50 56.50Q102 19 81 0L47 0L47 0M221 466Q221 483 217.50 490Q214 497 207 497Q195 497 185 482.50Q175 468 167 444.50Q159 421 154 390.50Q149 360 149 328Q148 274 151 249Q154 224 159 209Q174 246 185.50 282.50Q197 319 205 353Q213 387 217 416Q221 445 221 466Z"  horiz-adv-x="307" vert-adv-y="1000"  />

      
      <glyph glyph-name="uni77" unicode="&#x77;" d="M92 456Q81 399 70.50 343.50Q60 288 51.50 238.50Q43 189 38 148Q33 107 33 80Q33 38 47 38Q59 38 73.50 53Q88 68 103 96Q118 124 132 162Q146 200 157 247Q165 298 174.50 350Q184 402 195 456L247 456Q237 402 227 348.50Q217 295 209 247Q201 199 196 158.50Q191 118 191 90Q191 65 195.50 51Q200 37 210 37Q218 37 227.50 47.50Q237 58 248 76Q259 94 270.50 118.50Q282 143 294 172Q286 193 281 220.50Q276 248 276 283Q276 339 282.50 383.50Q289 428 300 459.50Q311 491 326 507.50Q341 524 359 524Q380 524 391.50 505Q403 486 403 452Q403 422 397.50 385.50Q392 349 382.50 310.50Q373 272 360 233Q347 194 332 158Q343 144 363 144Q389 144 411 169.50Q433 195 450 241Q454 241 461 238Q468 235 468 231Q451 180 424.50 152Q398 124 363 124Q352 124 341 126.50Q330 129 322 137Q308 107 292.50 81Q277 55 261.50 36Q246 17 230.50 6Q215-5 200-5Q172-5 159 23.50Q146 52 146 101Q146 110 146.50 119Q147 128 148 138Q125 75 95.50 35Q66-5 38-5Q6-5-4 29.50Q-14 64-14 119Q-14 153-9 193Q-4 233 3.50 276.50Q11 320 20.50 365.50Q30 411 39 456L92 456M349 497Q340 497 331 481Q322 465 315 436Q308 407 303.50 367Q299 327 299 279Q299 231 306 203Q318 236 328.50 271.50Q339 307 347 341.50Q355 376 359.50 407.50Q364 439 364 465Q364 479 360 488Q356 497 349 497Z"  horiz-adv-x="450" vert-adv-y="1000"  />

      
      <glyph glyph-name="uni78" unicode="&#x78;" d="M0 239Q21 294 39 335Q57 376 73.50 404Q90 432 106.50 446Q123 460 142 460Q162 460 174 446Q186 432 192.50 409Q199 386 201 355.50Q203 325 203 291Q214 322 226.50 352.50Q239 383 254 407Q269 431 286 446Q303 461 324 461Q343 461 359 447Q354 436 349.50 425.50Q345 415 340 404Q330 412 316 412Q301 412 286 397Q271 382 256.50 357.50Q242 333 228.50 302.50Q215 272 203 241Q200 215 199 196.50Q198 178 197 165Q196 152 196 142Q196 132 196 122Q196 84 202 60Q208 36 225 36Q252 36 284.50 88.50Q317 141 355 241Q360 241 367.50 237Q375 233 375 231L362 200Q340 148 321 109.50Q302 71 283.50 46Q265 21 246 8.50Q227-4 205-4Q172-4 160.50 30.50Q149 65 149 123Q149 128 149.50 133Q150 138 150 143Q136 111 122 84Q108 57 93 37.50Q78 18 61.50 6.50Q45-5 27-5Q2-5-8.50 11.50Q-19 28-19 54Q-19 78-10.50 106Q-2 134 15 160L51 142Q38 125 30 102Q22 79 22 60Q22 46 27 37.50Q32 29 43 29Q56 29 69 42.50Q82 56 95.50 79Q109 102 122.50 132.50Q136 163 150 197Q151 232 153 266Q155 300 155 329Q155 368 149.50 394Q144 420 127 420Q117 420 106.50 410.50Q96 401 83 379Q70 357 54.50 320.50Q39 284 18 230Q13 231 9 232Q0 234 0 239Z"  horiz-adv-x="355" vert-adv-y="1000"  />

      
      <glyph glyph-name="uni79" unicode="&#x79;" d="M299 241Q304 241 312 238.50Q320 236 319 231Q287 149 244 91.50Q201 34 159-10Q150-58 142-110Q134-162 121-205Q108-248 88.50-276Q69-304 38-304Q12-304-5-285.50Q-22-267-22-233Q-22-205-11.50-179Q-1-153 17-128Q35-103 58.50-78.50Q82-54 108-28Q114 2 119.50 33.50Q125 65 130 97Q110 52 85 23.50Q60-5 36-5Q4-5-6 28Q-16 61-16 114Q-14 159-5.50 212.50Q3 266 13 315.50Q23 365 31.50 403.50Q40 442 43 456L96 456Q92 435 81.50 389Q71 343 59.50 287.50Q48 232 39.50 176.50Q31 121 31 82Q31 58 37 48Q43 38 53 38Q66 38 81 58Q96 78 110.50 111Q125 144 138 186.50Q151 229 160 274Q170 330 178.50 378Q187 426 194 456L246 456Q241 439 232.50 395.50Q224 352 213 292.50Q202 233 190 165Q178 97 166 32Q203 73 238 123Q273 173 299 241M12-233Q12-253 19.50-262.50Q27-272 38-272Q52-272 61-257Q70-242 75-216L101-70Q64-108 38-147Q12-186 12-233Z"  horiz-adv-x="299" vert-adv-y="1000"  />

      
      <glyph glyph-name="uni7a" unicode="&#x7a;" d="M21 25Q29 28 42.50 28Q56 28 60 27Q77 45 94 83Q111 121 124 166.50Q137 212 145 259.50Q153 307 153 344Q153 418 115 418Q100 418 88.50 404Q77 390 66.50 364.50Q56 339 44.50 304.50Q33 270 18 230Q13 231 9 232Q0 234 0 239Q16 282 28 322.50Q40 363 53 393.50Q66 424 82.50 442.50Q99 461 124 461Q146 461 162 450.50Q178 440 188 421.50Q198 403 203 378Q208 353 208 325Q208 284 199.50 239Q191 194 175.50 151.50Q160 109 138.50 73.50Q117 38 91 16Q100 10 107 1.50Q114-7 120-18Q141 5 163.50 31.50Q186 58 208 89Q230 120 250.50 157.50Q271 195 288 241Q287 241 290 240.50Q293 240 296.50 239Q300 238 303 236Q306 234 306 231Q288 184 266.50 145Q245 106 222 74Q199 42 175.50 15Q152-12 130-36Q147-79 147-128Q147-163 138.50-194.50Q130-226 115.50-250Q101-274 81-288Q61-302 39-302Q16-302 1.50-283.50Q-13-265-13-236Q-13-208-4.50-183.50Q4-159 18.50-136Q33-113 51-91.50Q69-70 89-49Q85-32 79.50-19.50Q74-7 65 1Q57-3 48-4.50Q39-6 31-6Q23-6 20-5L21 25M41-276Q53-276 63.50-262.50Q74-249 81.50-227.50Q89-206 93-177.50Q97-149 97-119Q97-108 96-98Q95-88 94-77Q61-115 38.50-155.50Q16-196 16-239Q16-276 41-276Z"  horiz-adv-x="288" vert-adv-y="1000"  />

      
      <glyph glyph-name="uni7b" unicode="&#x7b;" d="M53 361Q64 361 74 360.50Q84 360 92 356Q107 370 111.50 398Q116 426 116 461Q116 491 114.50 523.50Q113 556 113 588Q113 624 117 657.50Q121 691 134 716.50Q147 742 169.50 757.50Q192 773 230 773Q243 773 250 769Q246 758 242.50 746Q239 734 236 723Q227 726 219 726Q197 726 183.50 714Q170 702 163 681.50Q156 661 154 634.50Q152 608 152 579Q152 557 152.50 535Q153 513 153 491Q153 436 145.50 395.50Q138 355 117 337Q126 323 126 303Q126 270 112 226.50Q98 183 81.50 139Q65 95 51 55Q37 15 37-12Q37-31 45-41.50Q53-52 73-52Q81-52 92-49L98-95Q95-97 86.50-97.50Q78-98 73-98Q49-98 35-91Q21-84 13-71.50Q5-59 2.50-42.50Q0-26 0-8Q0 24 14.50 65Q29 106 46.50 148Q64 190 78.50 228.50Q93 267 93 293Q93 311 85 321Q80 319 70.50 318Q61 317 46 318L53 361Z"  horiz-adv-x="167" vert-adv-y="1000"  />

      
      <glyph glyph-name="uni7c" unicode="&#x7c;" d="M173 721Q159 637 144 553Q129 469 113 381Q97 293 79.50 199Q62 105 41 0L9 0Q42 190 76.50 371.50Q111 553 140 721L173 721Z"  horiz-adv-x="168" vert-adv-y="1000"  />

      
      <glyph glyph-name="uni7d" unicode="&#x7d;" d="M174 313Q155 314 147 315Q139 316 134 318Q119 304 114.50 275Q110 246 110 210Q110 181 111.50 150Q113 119 113 87Q113 51 109 17.50Q105-16 92.50-41.50Q80-67 57.50-82.50Q35-98-2-98Q-15-98-22-94Q-19-83-15.50-71Q-12-59-8-48Q1-51 8-51Q31-51 44-38Q57-25 64-3.50Q71 18 72.50 46.50Q74 75 74 106L74 172Q74 233 80.50 275.50Q87 318 109 338Q101 349 101 371Q101 404 115 447.50Q129 491 145.50 535Q162 579 176 619.50Q190 660 190 687Q190 706 182 716.50Q174 727 154 727Q145 727 135 724L129 770Q132 772 140.50 772.50Q149 773 154 773Q195 773 211 751Q227 729 227 697Q227 659 212.50 615Q198 571 180.50 528Q163 485 148.50 446.50Q134 408 134 381Q134 361 141 353Q151 356 160.50 356.50Q170 357 181 357L174 313Z"  horiz-adv-x="195" vert-adv-y="1000"  />

      
      <glyph glyph-name="uni7e" unicode="&#x7e;" d="M-14 317Q10 349 42.50 359.50Q75 370 112 370L128 370Q170 367 211.50 358Q253 349 288 349Q332 349 353 359Q374 369 391 384L437 323Q417 302 391 289Q365 276 328 276Q301 276 274 282.50Q247 289 220 296.50Q193 304 167 310.50Q141 317 116 317Q90 317 67.50 308Q45 299 25 276L-14 317Z"  horiz-adv-x="390" vert-adv-y="1000"  />

      
      <glyph glyph-name="uni2020" unicode="&#x2020;" d="M82 418L128 721L181 721Q168 653 153 576.50Q138 500 122 418L191 418L185 386L115 386Q92 269 68 148.50Q44 28 21-90L-1-90Q18 18 37.50 141Q57 264 77 386L6 386L12 418L82 418Z"  horiz-adv-x="180" vert-adv-y="1000"  />

      
      <glyph glyph-name="unib0" unicode="&#xb0;" d="M85 520Q62 520 49.50 501.50Q37 483 37 463Q37 449 44.50 439Q52 429 68 429Q90 429 102 447.50Q114 466 114 485Q114 499 107 509.50Q100 520 85 520M88 540Q115 540 128 524Q141 508 141 487Q141 473 136 459Q131 445 121 434Q111 423 97.50 416Q84 409 66 409Q38 409 25 424.50Q12 440 12 461Q12 475 17 489Q22 503 32 514.50Q42 526 56 533Q70 540 88 540Z"  horiz-adv-x="152" vert-adv-y="1000"  />

      
      <glyph glyph-name="unia7" unicode="&#xa7;" d="M244 322Q259 347 259 373Q259 393 245.50 411.50Q232 430 211 430Q194 430 182 415.50Q170 401 170 374Q170 349 180 329Q190 309 205 290Q220 271 238 253Q256 235 271 216Q286 197 296 175Q306 153 306 126Q306 99 296 75Q286 51 267 33Q248 15 220 4.50Q192-6 157-6Q103-6 68 25Q33 56 25 119L80 128Q85 80 105.50 54.50Q126 29 154 29Q178 29 190 47Q202 65 202 88Q202 118 181.50 142.50Q161 167 136 193.50Q111 220 90.50 253Q70 286 70 333Q70 360 78.50 383Q87 406 104 423.50Q121 441 145.50 451Q170 461 202 461Q250 461 278.50 433Q307 405 307 360Q307 332 295 304L244 322M272 117Q272 154 251 182Q230 210 205 237.50Q180 265 159 296Q138 327 138 370Q138 388 144 404.50Q150 421 163 433Q137 427 120 403Q103 379 103 344Q103 300 124 267Q145 234 170.50 206Q196 178 217 151.50Q238 125 238 93Q238 77 232 60.50Q226 44 215 31Q244 41 258 63.50Q272 86 272 117Z"  horiz-adv-x="339" vert-adv-y="1000"  />

      
      <glyph glyph-name="uni2022" unicode="&#x2022;" d="M45 257Q30 257 23 266.50Q16 276 16 289Q16 307 28 324Q40 341 60 341Q75 341 81.50 332Q88 323 88 310Q88 292 76.50 274.50Q65 257 45 257Z"  horiz-adv-x="108" vert-adv-y="1000"  />

      
      <glyph glyph-name="unib6" unicode="&#xb6;" d="M400 714Q386 591 370.50 486.50Q355 382 338 277Q381 288 412 312Q443 336 462 369Q481 402 490 443.50Q499 485 499 530Q499 536 498.50 542.50Q498 549 497 556L550 562Q551 554 551.50 546.50Q552 539 552 531Q552 480 539.50 433Q527 386 500 347.50Q473 309 431.50 282Q390 255 332 245Q322 188 310.50 127.50Q299 67 285 0L251 0Q264 66 275.50 125Q287 184 297 241Q286 240 276.50 240Q267 240 256 240Q246 183 234.50 124Q223 65 210 0L176 0Q189 64 200.50 125Q212 186 223 244Q169 250 128.50 271Q88 292 61 322Q34 352 20.50 389Q7 426 7 465Q7 512 26.50 558.50Q46 605 84.50 641.50Q123 678 180.50 701Q238 724 315 724Q338 724 359.50 721.50Q381 719 400 714M228 275Q247 384 262 489Q277 594 289 694Q234 689 191 667Q148 645 118.50 613Q89 581 73.50 542Q58 503 58 463Q58 430 68.50 398.50Q79 367 100 341.50Q121 316 153 298.50Q185 281 228 275M365 691Q346 695 322 695Q309 591 295.50 486.50Q282 382 262 270Q273 270 285.50 270.50Q298 271 303 272Q322 380 336.50 483.50Q351 587 365 691Z"  horiz-adv-x="557" vert-adv-y="1000"  />

      
      <glyph glyph-name="uniae" unicode="&#xae;" d="M155 200Q120 200 94 217Q68 234 51 263Q34 292 25.50 329.50Q17 367 17 409Q17 463 30.50 518.50Q44 574 71 618.50Q98 663 138 691.50Q178 720 231 720Q266 720 292 703Q318 686 335 657Q352 628 360.50 590.50Q369 553 369 511Q369 457 355 401.50Q341 346 314 301Q287 256 247 228Q207 200 155 200M156 220Q202 220 237.50 246.50Q273 273 297 315Q321 357 333 409Q345 461 345 511Q345 549 338 583Q331 617 316.50 643Q302 669 280.50 684.50Q259 700 229 700Q183 700 147.50 673.50Q112 647 88 605Q64 563 52 511Q40 459 40 408Q40 370 47 336Q54 302 68.50 276.50Q83 251 104.50 235.50Q126 220 156 220M110 321L130 420L122 420Q124 426 124.50 432Q125 438 126 443Q132 443 135 442L160 579Q154 576 148.50 572Q143 568 138 563L125 580Q142 594 160.50 603.50Q179 613 205 613Q240 613 256.50 593.50Q273 574 273 546Q273 528 266.50 509.50Q260 491 247 474Q234 457 215 444.50Q196 432 172 426Q186 417 196.50 403Q207 389 216 375.50Q225 362 233.50 351Q242 340 252 336L237 313Q225 316 215 329Q205 342 195 358.50Q185 375 175.50 392Q166 409 154 420L136 321L110 321M206 595Q201 595 196 594Q191 593 186 591L158 436Q179 442 196 454Q213 466 224 481.50Q235 497 241 514.50Q247 532 247 547Q247 567 236.50 581Q226 595 206 595Z"  horiz-adv-x="379" vert-adv-y="1000"  />

      
      <glyph glyph-name="unia9" unicode="&#xa9;" d="M246 411Q251 409 256.50 407Q262 405 267 403Q253 362 228.50 337Q204 312 178 312Q158 312 144.50 320.50Q131 329 122 344Q113 359 109 379Q105 399 105 421Q105 453 113 487.50Q121 522 135.50 550Q150 578 169.50 596Q189 614 213 614Q236 614 247.50 595Q259 576 259 548Q259 529 253 507.50Q247 486 235 466Q229 469 222.50 471.50Q216 474 210 476Q236 523 236 557Q236 594 211 594Q196 594 181.50 576.50Q167 559 156 533Q145 507 138.50 475Q132 443 132 415Q132 380 143.50 356Q155 332 181 332Q204 332 220 356Q236 380 246 411M155 200Q120 200 94 217Q68 234 51 263Q34 292 25.50 329.50Q17 367 17 409Q17 463 30.50 518.50Q44 574 71 618.50Q98 663 138 691.50Q178 720 231 720Q266 720 292 703Q318 686 335 657Q352 628 360.50 590.50Q369 553 369 511Q369 457 355 401.50Q341 346 314 301Q287 256 247 228Q207 200 155 200M156 220Q202 220 237.50 246.50Q273 273 297 315Q321 357 333 409Q345 461 345 511Q345 549 338 583Q331 617 316.50 643Q302 669 280.50 684.50Q259 700 229 700Q183 700 147.50 673.50Q112 647 88 605Q64 563 52 511Q40 459 40 408Q40 370 47 336Q54 302 68.50 276.50Q83 251 104.50 235.50Q126 220 156 220Z"  horiz-adv-x="392" vert-adv-y="1000"  />

      
      <glyph glyph-name="uni2122" unicode="&#x2122;" d="M296 456Q294 472 293 495Q292 518 292 544Q292 570 293 596.50Q294 623 298 647Q292 621 284 593.50Q276 566 267 540.50Q258 515 249 493Q240 471 231 456L204 456Q199 485 194.50 535Q190 585 183 643Q172 567 142 456L114 456Q132 516 149.50 581Q167 646 175 721L209 721Q212 679 216 639.50Q220 600 223 569Q227 533 231 501Q248 543 261.50 582.50Q275 622 283 653Q293 689 299 721L336 721Q331 676 328.50 632.50Q326 589 326 551Q326 522 327 497.50Q328 473 329 456L296 456M139 721L136 699L85 699Q82 678 77 645Q72 612 66.50 577Q61 542 55 509.50Q49 477 44 456L12 456Q16 478 21.50 509.50Q27 541 32.50 575Q38 609 43.50 642Q49 675 52 699L-3 699Q-1 704-1 709.50Q-1 715 0 721L139 721Z"  horiz-adv-x="351" vert-adv-y="1000"  />

      
      <glyph glyph-name="uni2260" unicode="&#x2260;" d="M170 353Q168 349 159 330.50Q150 312 133.50 282.50Q117 253 93 215Q69 177 37 134L27 139Q30 143 44 162.50Q58 182 77.50 212Q97 242 119 279Q141 316 159 355L170 353M190 220L184 188L4 188L10 220L190 220M206 312L200 280L20 280L26 312L206 312Z"  horiz-adv-x="210" vert-adv-y="1000"  />

      
      <glyph glyph-name="uni2248" unicode="&#x2248;" d="M-4 264Q8 280 24 285Q40 290 58 290L66 290Q87 288 107.50 284Q128 280 145 280Q167 280 177.50 284.50Q188 289 196 297L219 267Q209 256 196 250Q183 244 165 244Q139 244 112 254Q85 264 60 264Q47 264 36 259.50Q25 255 15 244L-4 264M7 344Q19 360 35 365Q51 370 69 370L77 370Q98 368 118.50 364Q139 360 156 360Q178 360 188.50 364.50Q199 369 207 377L230 347Q220 336 207 330Q194 324 176 324Q150 324 123 334Q96 344 71 344Q58 344 47 339.50Q36 335 26 324L7 344Z"  horiz-adv-x="197" vert-adv-y="1000"  />

      
      <glyph glyph-name="uniab" unicode="&#xab;" d="M143 394Q173 408 206 426Q234 441 267 461.50Q300 482 332 506L351 475Q319 453 288 435.50Q257 418 232 405Q203 390 176 379Q201 360 224.50 339.50Q248 319 266 302Q287 282 306 261L276 229Q257 252 235 276Q216 296 191 320Q166 344 139 367L143 394M18 394Q48 408 81 426Q109 441 142 461.50Q175 482 207 506L226 475Q194 453 163 435.50Q132 418 107 405Q78 390 51 379Q76 360 99.50 339.50Q123 319 141 302Q162 282 181 261L151 229Q132 252 110 276Q91 296 66 320Q41 344 14 367L18 394Z"  horiz-adv-x="370" vert-adv-y="1000"  />

      
      <glyph glyph-name="unibb" unicode="&#xbb;" d="M341 341Q311 327 278 309Q250 294 217 273.50Q184 253 152 229Q142 246 133 260Q164 282 195.50 299.50Q227 317 252 330Q281 345 308 356Q282 374 259 395Q236 416 218 433Q197 453 178 474L208 506Q228 483 250 459Q269 439 293.50 414.50Q318 390 346 368L341 341M226 341Q196 327 163 309Q135 294 102 273.50Q69 253 37 229Q27 246 18 260Q49 282 80.50 299.50Q112 317 137 330Q166 345 193 356Q167 374 144 395Q121 416 103 433Q82 453 63 474L93 506Q113 483 135 459Q154 439 178.50 414.50Q203 390 231 368L226 341Z"  horiz-adv-x="306" vert-adv-y="1000"  />

      
      <glyph glyph-name="uni2026" unicode="&#x2026;" d="M158-7Q143-7 135.50 3Q128 13 128 27Q128 44 138.50 58.50Q149 73 169 73Q185 73 192 63.50Q199 54 199 40Q199 23 188.50 8Q178-7 158-7M273-7Q258-7 250.50 3Q243 13 243 27Q243 44 253.50 58.50Q264 73 284 73Q300 73 307 63.50Q314 54 314 40Q314 23 303.50 8Q293-7 273-7M43-7Q28-7 20.50 3Q13 13 13 27Q13 44 23.50 58.50Q34 73 54 73Q70 73 77 63.50Q84 54 84 40Q84 23 73.50 8Q63-7 43-7Z"  horiz-adv-x="334" vert-adv-y="1000"  />

      
      <glyph glyph-name="uni2013" unicode="&#x2013;" d="M300 272L294 240L15 240L21 272L300 272Z"  horiz-adv-x="319" vert-adv-y="1000"  />

      
      <glyph glyph-name="uni2014" unicode="&#x2014;" d="M418 272L413 240L34 240L39 272L418 272Z"  horiz-adv-x="458" vert-adv-y="1000"  />

      
      <glyph glyph-name="uni201C" unicode="&#x201C;" d="M108 719Q94 690 88.50 664.50Q83 639 83 613Q83 604 83.50 595Q84 586 85 577Q73 575 61 573.50Q49 572 37 570L37 590Q39 628 50.50 664.50Q62 701 80 733L108 719M150 728Q157 724 163.50 720.50Q170 717 178 714Q152 659 152 608Q152 590 155 572Q143 570 131 568.50Q119 567 107 565Q107 569 106.50 572Q106 575 106 579Q106 617 118 656Q130 695 150 728Z"  horiz-adv-x="190" vert-adv-y="1000"  />

      
      <glyph glyph-name="uni201D" unicode="&#x201D;" d="M106 561Q107 570 107.50 578Q108 586 108 594Q108 624 101.50 649.50Q95 675 82 703L125 725Q133 702 137.50 677Q142 652 142 626Q142 609 141 591.50Q140 574 136 558L106 561M70 554Q62 555 54.50 555.50Q47 556 39 558Q40 567 40.50 575Q41 583 41 591Q41 621 34.50 646.50Q28 672 15 700L58 722Q68 696 72 667Q76 638 76 609Q76 595 74 581Q72 567 70 554Z"  horiz-adv-x="135" vert-adv-y="1000"  />

      
      <glyph glyph-name="uni2018" unicode="&#x2018;" d="M113 709Q97 674 92 639.50Q87 605 90 567Q78 565 66 563.50Q54 562 42 560L42 580Q44 618 55.50 654.50Q67 691 85 723L113 709Z"  horiz-adv-x="142" vert-adv-y="1000"  />

      
      <glyph glyph-name="uni2019" unicode="&#x2019;" d="M62 567Q65 588 65 607Q65 634 59 658.50Q53 683 41 710L85 730Q100 683 100 633Q100 593 93 562L62 567Z"  horiz-adv-x="135" vert-adv-y="1000"  />

      
      <glyph glyph-name="uni2044" unicode="&#x2044;" d="M208 464Q215 461 221 458Q227 455 234 453Q206 396 179.50 342Q153 288 126.50 232.50Q100 177 71.50 119Q43 61 10-3Q4-1-2 1.50Q-8 4-14 7Q20 78 48 135Q76 192 101.50 244.50Q127 297 152.50 349.50Q178 402 208 464Z"  horiz-adv-x="211" vert-adv-y="1000"  />

      
      <glyph glyph-name="uni20AC" unicode="&#x20AC;" d="M174 266L169 239L103 239L97 201L163 201L158 174L95 174Q94 159 94 134Q94 109 99.50 84.50Q105 60 118 42.50Q131 25 155 25Q188 25 213 57Q238 89 252 139Q262 135 271.50 132.50Q281 130 291 126Q273 66 238 30.50Q203-5 150-5Q117-5 96 13Q75 31 63 58Q51 85 46.50 116Q42 147 43 174L0 174Q1 181 1.50 187.50Q2 194 4 201L45 201L50 239L10 239L15 266L56 266Q65 304 81 339Q97 374 117.50 401Q138 428 162.50 444Q187 460 215 460Q253 460 269.50 430.50Q286 401 286 360Q286 328 277.50 293.50Q269 259 253 231Q243 236 233 240.50Q223 245 213 250Q229 275 238.50 306.50Q248 338 248 367Q248 393 238 412Q228 431 209 431Q193 431 178 417.50Q163 404 150 381Q137 358 126 328.50Q115 299 108 266L174 266Z"  horiz-adv-x="304" vert-adv-y="1000"  />

      
      <glyph glyph-name="uni2039" unicode="&#x2039;" d="M16 264Q46 278 79 296Q107 311 140 331.50Q173 352 205 376L224 345Q192 323 161 305.50Q130 288 105 275Q76 260 49 249Q74 230 97.50 209.50Q121 189 139 172Q160 152 179 131L149 99Q130 122 108 146Q89 166 64 190Q39 214 12 237L16 264Z"  horiz-adv-x="218" vert-adv-y="1000"  />

      
      <glyph glyph-name="uni203A" unicode="&#x203A;" d="M226 211Q196 197 163 179Q135 164 102 143.50Q69 123 37 99Q27 116 18 130Q49 152 80.50 169.50Q112 187 137 200Q166 215 193 226Q167 244 144 265Q121 286 103 303Q82 323 63 344L93 376Q113 353 135 329Q154 309 178.50 284.50Q203 260 231 238L226 211Z"  horiz-adv-x="241" vert-adv-y="1000"  />

      
      </font>
</defs>
</svg>
